<mxfile host="Electron" agent="Mozilla/5.0 (Windows NT 10.0; Win64; x64) AppleWebKit/537.36 (KHTML, like Gecko) draw.io/24.7.17 Chrome/128.0.6613.36 Electron/32.0.1 Safari/537.36" version="24.7.17">
  <diagram name="Page-1" id="rHDHG3lM8t3RmprbiAKM">
    <mxGraphModel dx="1884" dy="557" grid="1" gridSize="10" guides="1" tooltips="1" connect="1" arrows="1" fold="1" page="1" pageScale="1" pageWidth="850" pageHeight="1100" math="0" shadow="0">
      <root>
        <mxCell id="0" />
        <mxCell id="1" parent="0" />
        <mxCell id="Run5okdQB8i3EcOxjmgW-6" style="edgeStyle=orthogonalEdgeStyle;rounded=0;orthogonalLoop=1;jettySize=auto;html=1;entryX=0.5;entryY=0;entryDx=0;entryDy=0;" parent="1" source="Run5okdQB8i3EcOxjmgW-1" target="Run5okdQB8i3EcOxjmgW-4" edge="1">
          <mxGeometry relative="1" as="geometry" />
        </mxCell>
        <mxCell id="Run5okdQB8i3EcOxjmgW-1" value="Development" style="ellipse;whiteSpace=wrap;html=1;aspect=fixed;" parent="1" vertex="1">
          <mxGeometry x="330" y="20" width="80" height="80" as="geometry" />
        </mxCell>
        <mxCell id="Run5okdQB8i3EcOxjmgW-14" style="edgeStyle=orthogonalEdgeStyle;rounded=0;orthogonalLoop=1;jettySize=auto;html=1;" parent="1" source="Run5okdQB8i3EcOxjmgW-2" target="Run5okdQB8i3EcOxjmgW-7" edge="1">
          <mxGeometry relative="1" as="geometry" />
        </mxCell>
        <mxCell id="Run5okdQB8i3EcOxjmgW-2" value="Showroom" style="shape=hexagon;perimeter=hexagonPerimeter2;whiteSpace=wrap;html=1;fixedSize=1;" parent="1" vertex="1">
          <mxGeometry x="600" y="195" width="120" height="80" as="geometry" />
        </mxCell>
        <mxCell id="Run5okdQB8i3EcOxjmgW-3" value="Hardware" style="ellipse;whiteSpace=wrap;html=1;aspect=fixed;fillColor=#f8cecc;strokeColor=#b85450;" parent="1" vertex="1">
          <mxGeometry x="220" y="90" width="80" height="80" as="geometry" />
        </mxCell>
        <mxCell id="Run5okdQB8i3EcOxjmgW-4" value="Software" style="ellipse;whiteSpace=wrap;html=1;aspect=fixed;fillColor=#f8cecc;strokeColor=#b85450;" parent="1" vertex="1">
          <mxGeometry x="440" y="90" width="80" height="80" as="geometry" />
        </mxCell>
        <mxCell id="Run5okdQB8i3EcOxjmgW-5" style="edgeStyle=orthogonalEdgeStyle;rounded=0;orthogonalLoop=1;jettySize=auto;html=1;entryX=0.392;entryY=-0.004;entryDx=0;entryDy=0;entryPerimeter=0;" parent="1" source="Run5okdQB8i3EcOxjmgW-1" target="Run5okdQB8i3EcOxjmgW-3" edge="1">
          <mxGeometry relative="1" as="geometry" />
        </mxCell>
        <mxCell id="Run5okdQB8i3EcOxjmgW-7" value="Tata Harrier Car" style="text;html=1;align=center;verticalAlign=middle;whiteSpace=wrap;rounded=0;" parent="1" vertex="1">
          <mxGeometry x="50" y="220" width="80" height="30" as="geometry" />
        </mxCell>
        <mxCell id="Run5okdQB8i3EcOxjmgW-16" value="" style="edgeStyle=orthogonalEdgeStyle;rounded=0;orthogonalLoop=1;jettySize=auto;html=1;" parent="1" source="Run5okdQB8i3EcOxjmgW-8" target="Run5okdQB8i3EcOxjmgW-9" edge="1">
          <mxGeometry relative="1" as="geometry" />
        </mxCell>
        <mxCell id="Run5okdQB8i3EcOxjmgW-8" value="Workshop" style="shape=parallelogram;perimeter=parallelogramPerimeter;whiteSpace=wrap;html=1;fixedSize=1;" parent="1" vertex="1">
          <mxGeometry x="10" y="310" width="120" height="60" as="geometry" />
        </mxCell>
        <mxCell id="Run5okdQB8i3EcOxjmgW-17" value="" style="edgeStyle=orthogonalEdgeStyle;rounded=0;orthogonalLoop=1;jettySize=auto;html=1;" parent="1" source="Run5okdQB8i3EcOxjmgW-9" target="Run5okdQB8i3EcOxjmgW-10" edge="1">
          <mxGeometry relative="1" as="geometry" />
        </mxCell>
        <mxCell id="Run5okdQB8i3EcOxjmgW-9" value="RAW" style="shape=cylinder3;whiteSpace=wrap;html=1;boundedLbl=1;backgroundOutline=1;size=15;" parent="1" vertex="1">
          <mxGeometry x="170" y="300" width="60" height="80" as="geometry" />
        </mxCell>
        <mxCell id="Run5okdQB8i3EcOxjmgW-18" value="" style="edgeStyle=orthogonalEdgeStyle;rounded=0;orthogonalLoop=1;jettySize=auto;html=1;" parent="1" source="Run5okdQB8i3EcOxjmgW-10" target="Run5okdQB8i3EcOxjmgW-11" edge="1">
          <mxGeometry relative="1" as="geometry" />
        </mxCell>
        <mxCell id="Run5okdQB8i3EcOxjmgW-10" value="Design" style="rounded=1;whiteSpace=wrap;html=1;" parent="1" vertex="1">
          <mxGeometry x="260" y="320" width="120" height="60" as="geometry" />
        </mxCell>
        <mxCell id="Run5okdQB8i3EcOxjmgW-19" value="" style="edgeStyle=orthogonalEdgeStyle;rounded=0;orthogonalLoop=1;jettySize=auto;html=1;" parent="1" source="Run5okdQB8i3EcOxjmgW-11" target="Run5okdQB8i3EcOxjmgW-12" edge="1">
          <mxGeometry relative="1" as="geometry" />
        </mxCell>
        <mxCell id="Run5okdQB8i3EcOxjmgW-11" value="Implementation" style="rounded=1;whiteSpace=wrap;html=1;" parent="1" vertex="1">
          <mxGeometry x="400" y="320" width="120" height="60" as="geometry" />
        </mxCell>
        <mxCell id="Run5okdQB8i3EcOxjmgW-13" style="edgeStyle=orthogonalEdgeStyle;rounded=0;orthogonalLoop=1;jettySize=auto;html=1;" parent="1" source="Run5okdQB8i3EcOxjmgW-12" edge="1">
          <mxGeometry relative="1" as="geometry">
            <mxPoint x="700" y="280" as="targetPoint" />
          </mxGeometry>
        </mxCell>
        <mxCell id="Run5okdQB8i3EcOxjmgW-12" value="Testing" style="rounded=1;whiteSpace=wrap;html=1;" parent="1" vertex="1">
          <mxGeometry x="560" y="320" width="120" height="60" as="geometry" />
        </mxCell>
        <mxCell id="Run5okdQB8i3EcOxjmgW-15" style="edgeStyle=orthogonalEdgeStyle;rounded=0;orthogonalLoop=1;jettySize=auto;html=1;entryX=0.683;entryY=-0.039;entryDx=0;entryDy=0;entryPerimeter=0;" parent="1" source="Run5okdQB8i3EcOxjmgW-7" target="Run5okdQB8i3EcOxjmgW-8" edge="1">
          <mxGeometry relative="1" as="geometry" />
        </mxCell>
        <mxCell id="Run5okdQB8i3EcOxjmgW-20" value="SOP" style="text;html=1;align=center;verticalAlign=middle;whiteSpace=wrap;rounded=0;" parent="1" vertex="1">
          <mxGeometry x="110" y="180" width="60" height="30" as="geometry" />
        </mxCell>
        <mxCell id="Run5okdQB8i3EcOxjmgW-21" value="SDLC" style="text;html=1;align=center;verticalAlign=middle;whiteSpace=wrap;rounded=0;" parent="1" vertex="1">
          <mxGeometry x="200" y="420" width="120" height="40" as="geometry" />
        </mxCell>
        <mxCell id="Run5okdQB8i3EcOxjmgW-24" value="" style="edgeStyle=orthogonalEdgeStyle;rounded=0;orthogonalLoop=1;jettySize=auto;html=1;" parent="1" source="Run5okdQB8i3EcOxjmgW-22" target="Run5okdQB8i3EcOxjmgW-23" edge="1">
          <mxGeometry relative="1" as="geometry" />
        </mxCell>
        <mxCell id="Run5okdQB8i3EcOxjmgW-22" value="Waterfall Model" style="shape=step;perimeter=stepPerimeter;whiteSpace=wrap;html=1;fixedSize=1;fillColor=#fff2cc;strokeColor=#d6b656;" parent="1" vertex="1">
          <mxGeometry x="200" y="480" width="120" height="80" as="geometry" />
        </mxCell>
        <mxCell id="Run5okdQB8i3EcOxjmgW-23" value="it&#39;s a linear sequential model of development" style="shape=card;whiteSpace=wrap;html=1;" parent="1" vertex="1">
          <mxGeometry x="425" y="470" width="115" height="120" as="geometry" />
        </mxCell>
        <mxCell id="Run5okdQB8i3EcOxjmgW-25" value="Agile Model" style="shape=step;perimeter=stepPerimeter;whiteSpace=wrap;html=1;fixedSize=1;fillColor=#f8cecc;strokeColor=#b85450;" parent="1" vertex="1">
          <mxGeometry x="190" y="650" width="120" height="80" as="geometry" />
        </mxCell>
        <mxCell id="Run5okdQB8i3EcOxjmgW-26" value="it works in shorter cycles of development and eradicates dependencies from teams" style="shape=card;whiteSpace=wrap;html=1;" parent="1" vertex="1">
          <mxGeometry x="450" y="650" width="120" height="110" as="geometry" />
        </mxCell>
        <mxCell id="Run5okdQB8i3EcOxjmgW-27" style="edgeStyle=orthogonalEdgeStyle;rounded=0;orthogonalLoop=1;jettySize=auto;html=1;entryX=0.033;entryY=0.342;entryDx=0;entryDy=0;entryPerimeter=0;" parent="1" source="Run5okdQB8i3EcOxjmgW-25" target="Run5okdQB8i3EcOxjmgW-26" edge="1">
          <mxGeometry relative="1" as="geometry" />
        </mxCell>
        <mxCell id="Run5okdQB8i3EcOxjmgW-28" value="Scrum Master" style="text;html=1;align=center;verticalAlign=middle;whiteSpace=wrap;rounded=0;" parent="1" vertex="1">
          <mxGeometry x="160" y="620" width="60" height="30" as="geometry" />
        </mxCell>
        <mxCell id="Run5okdQB8i3EcOxjmgW-29" value="1. Sprint Planning&lt;div&gt;2. User Stories&lt;/div&gt;&lt;div&gt;3. Features.&lt;/div&gt;&lt;div&gt;4. Backlog&lt;/div&gt;&lt;div&gt;5. Release&lt;/div&gt;" style="whiteSpace=wrap;html=1;aspect=fixed;" parent="1" vertex="1">
          <mxGeometry x="620" y="580" width="150" height="150" as="geometry" />
        </mxCell>
        <mxCell id="Run5okdQB8i3EcOxjmgW-30" value="Netflix" style="ellipse;whiteSpace=wrap;html=1;aspect=fixed;" parent="1" vertex="1">
          <mxGeometry x="50" y="890" width="80" height="80" as="geometry" />
        </mxCell>
        <mxCell id="Run5okdQB8i3EcOxjmgW-35" style="edgeStyle=orthogonalEdgeStyle;rounded=0;orthogonalLoop=1;jettySize=auto;html=1;" parent="1" source="Run5okdQB8i3EcOxjmgW-31" target="Run5okdQB8i3EcOxjmgW-34" edge="1">
          <mxGeometry relative="1" as="geometry" />
        </mxCell>
        <mxCell id="Run5okdQB8i3EcOxjmgW-31" value="Development Team" style="ellipse;whiteSpace=wrap;html=1;aspect=fixed;fillColor=#fff2cc;strokeColor=#d6b656;" parent="1" vertex="1">
          <mxGeometry x="250" y="810" width="80" height="80" as="geometry" />
        </mxCell>
        <mxCell id="Run5okdQB8i3EcOxjmgW-32" value="&lt;span&gt;&lt;/span&gt;" style="text;whiteSpace=wrap;html=1;" parent="1" vertex="1">
          <mxGeometry x="490" y="850" width="30" height="20" as="geometry" />
        </mxCell>
        <mxCell id="Run5okdQB8i3EcOxjmgW-36" style="edgeStyle=orthogonalEdgeStyle;rounded=0;orthogonalLoop=1;jettySize=auto;html=1;entryX=0.625;entryY=0;entryDx=0;entryDy=0;" parent="1" source="Run5okdQB8i3EcOxjmgW-33" target="Run5okdQB8i3EcOxjmgW-34" edge="1">
          <mxGeometry relative="1" as="geometry" />
        </mxCell>
        <mxCell id="Run5okdQB8i3EcOxjmgW-33" value="Operations&lt;div&gt;Team&lt;/div&gt;" style="ellipse;whiteSpace=wrap;html=1;aspect=fixed;fillColor=#fff2cc;strokeColor=#d6b656;" parent="1" vertex="1">
          <mxGeometry x="450" y="810" width="80" height="80" as="geometry" />
        </mxCell>
        <mxCell id="Run5okdQB8i3EcOxjmgW-34" value="DevOps" style="shape=hexagon;perimeter=hexagonPerimeter2;whiteSpace=wrap;html=1;fixedSize=1;fillColor=#dae8fc;strokeColor=#6c8ebf;" parent="1" vertex="1">
          <mxGeometry x="330" y="930" width="120" height="80" as="geometry" />
        </mxCell>
        <mxCell id="Run5okdQB8i3EcOxjmgW-37" value="It a philosophy of collaboration between your dev and ops teams to have&amp;nbsp; smooth SDLC without any barriers" style="shape=card;whiteSpace=wrap;html=1;" parent="1" vertex="1">
          <mxGeometry x="560" y="900" width="120" height="120" as="geometry" />
        </mxCell>
        <mxCell id="Run5okdQB8i3EcOxjmgW-38" value="CI" style="ellipse;whiteSpace=wrap;html=1;aspect=fixed;fillColor=#ffe6cc;strokeColor=#d79b00;" parent="1" vertex="1">
          <mxGeometry x="270" y="1060" width="80" height="80" as="geometry" />
        </mxCell>
        <mxCell id="Run5okdQB8i3EcOxjmgW-39" value="CD" style="ellipse;whiteSpace=wrap;html=1;aspect=fixed;fillColor=#ffe6cc;strokeColor=#d79b00;" parent="1" vertex="1">
          <mxGeometry x="450" y="1060" width="80" height="80" as="geometry" />
        </mxCell>
        <mxCell id="Run5okdQB8i3EcOxjmgW-40" style="edgeStyle=orthogonalEdgeStyle;rounded=0;orthogonalLoop=1;jettySize=auto;html=1;entryX=0.358;entryY=-0.021;entryDx=0;entryDy=0;entryPerimeter=0;" parent="1" source="Run5okdQB8i3EcOxjmgW-34" target="Run5okdQB8i3EcOxjmgW-38" edge="1">
          <mxGeometry relative="1" as="geometry" />
        </mxCell>
        <mxCell id="Run5okdQB8i3EcOxjmgW-41" style="edgeStyle=orthogonalEdgeStyle;rounded=0;orthogonalLoop=1;jettySize=auto;html=1;entryX=0.375;entryY=0.054;entryDx=0;entryDy=0;entryPerimeter=0;" parent="1" source="Run5okdQB8i3EcOxjmgW-34" target="Run5okdQB8i3EcOxjmgW-39" edge="1">
          <mxGeometry relative="1" as="geometry" />
        </mxCell>
        <mxCell id="Run5okdQB8i3EcOxjmgW-42" value="Plan" style="rounded=1;whiteSpace=wrap;html=1;fillColor=#ffe6cc;strokeColor=#d79b00;" parent="1" vertex="1">
          <mxGeometry x="-70" y="1180" width="70" height="60" as="geometry" />
        </mxCell>
        <mxCell id="Run5okdQB8i3EcOxjmgW-43" value="" style="edgeStyle=orthogonalEdgeStyle;rounded=0;orthogonalLoop=1;jettySize=auto;html=1;" parent="1" source="Run5okdQB8i3EcOxjmgW-44" target="Run5okdQB8i3EcOxjmgW-52" edge="1">
          <mxGeometry relative="1" as="geometry" />
        </mxCell>
        <mxCell id="Run5okdQB8i3EcOxjmgW-44" value="Code" style="rounded=1;whiteSpace=wrap;html=1;fillColor=#ffe6cc;strokeColor=#d79b00;" parent="1" vertex="1">
          <mxGeometry x="20" y="1180" width="70" height="60" as="geometry" />
        </mxCell>
        <mxCell id="Run5okdQB8i3EcOxjmgW-45" value="" style="edgeStyle=orthogonalEdgeStyle;rounded=0;orthogonalLoop=1;jettySize=auto;html=1;" parent="1" source="Run5okdQB8i3EcOxjmgW-46" target="Run5okdQB8i3EcOxjmgW-52" edge="1">
          <mxGeometry relative="1" as="geometry" />
        </mxCell>
        <mxCell id="Run5okdQB8i3EcOxjmgW-46" value="Store" style="rounded=1;whiteSpace=wrap;html=1;fillColor=#ffe6cc;strokeColor=#d79b00;" parent="1" vertex="1">
          <mxGeometry x="115" y="1180" width="70" height="60" as="geometry" />
        </mxCell>
        <mxCell id="Run5okdQB8i3EcOxjmgW-47" value="" style="edgeStyle=orthogonalEdgeStyle;rounded=0;orthogonalLoop=1;jettySize=auto;html=1;" parent="1" source="Run5okdQB8i3EcOxjmgW-48" target="Run5okdQB8i3EcOxjmgW-56" edge="1">
          <mxGeometry relative="1" as="geometry" />
        </mxCell>
        <mxCell id="Run5okdQB8i3EcOxjmgW-48" value="Release" style="rounded=1;whiteSpace=wrap;html=1;fillColor=#e1d5e7;strokeColor=#9673a6;" parent="1" vertex="1">
          <mxGeometry x="525" y="1180" width="70" height="60" as="geometry" />
        </mxCell>
        <mxCell id="Run5okdQB8i3EcOxjmgW-49" value="" style="edgeStyle=orthogonalEdgeStyle;rounded=0;orthogonalLoop=1;jettySize=auto;html=1;" parent="1" source="Run5okdQB8i3EcOxjmgW-50" target="Run5okdQB8i3EcOxjmgW-48" edge="1">
          <mxGeometry relative="1" as="geometry" />
        </mxCell>
        <mxCell id="Run5okdQB8i3EcOxjmgW-50" value="Deploy" style="rounded=1;whiteSpace=wrap;html=1;fillColor=#e1d5e7;strokeColor=#9673a6;" parent="1" vertex="1">
          <mxGeometry x="415" y="1180" width="70" height="60" as="geometry" />
        </mxCell>
        <mxCell id="Run5okdQB8i3EcOxjmgW-51" value="" style="edgeStyle=orthogonalEdgeStyle;rounded=0;orthogonalLoop=1;jettySize=auto;html=1;" parent="1" source="Run5okdQB8i3EcOxjmgW-52" target="Run5okdQB8i3EcOxjmgW-54" edge="1">
          <mxGeometry relative="1" as="geometry" />
        </mxCell>
        <mxCell id="Run5okdQB8i3EcOxjmgW-52" value="Build" style="rounded=1;whiteSpace=wrap;html=1;fillColor=#ffe6cc;strokeColor=#d79b00;" parent="1" vertex="1">
          <mxGeometry x="210" y="1180" width="70" height="60" as="geometry" />
        </mxCell>
        <mxCell id="Run5okdQB8i3EcOxjmgW-53" value="" style="edgeStyle=orthogonalEdgeStyle;rounded=0;orthogonalLoop=1;jettySize=auto;html=1;" parent="1" source="Run5okdQB8i3EcOxjmgW-54" target="Run5okdQB8i3EcOxjmgW-50" edge="1">
          <mxGeometry relative="1" as="geometry" />
        </mxCell>
        <mxCell id="Run5okdQB8i3EcOxjmgW-54" value="Test" style="rounded=1;whiteSpace=wrap;html=1;fillColor=#ffe6cc;strokeColor=#d79b00;" parent="1" vertex="1">
          <mxGeometry x="310" y="1180" width="70" height="60" as="geometry" />
        </mxCell>
        <mxCell id="Run5okdQB8i3EcOxjmgW-55" value="" style="edgeStyle=orthogonalEdgeStyle;rounded=0;orthogonalLoop=1;jettySize=auto;html=1;" parent="1" source="Run5okdQB8i3EcOxjmgW-56" target="Run5okdQB8i3EcOxjmgW-57" edge="1">
          <mxGeometry relative="1" as="geometry" />
        </mxCell>
        <mxCell id="Run5okdQB8i3EcOxjmgW-56" value="Monitor" style="rounded=1;whiteSpace=wrap;html=1;fillColor=#e1d5e7;strokeColor=#9673a6;" parent="1" vertex="1">
          <mxGeometry x="625" y="1180" width="70" height="60" as="geometry" />
        </mxCell>
        <mxCell id="Run5okdQB8i3EcOxjmgW-57" value="Support" style="rounded=1;whiteSpace=wrap;html=1;fillColor=#e1d5e7;strokeColor=#9673a6;" parent="1" vertex="1">
          <mxGeometry x="715" y="1180" width="70" height="60" as="geometry" />
        </mxCell>
        <mxCell id="Run5okdQB8i3EcOxjmgW-58" value="" style="endArrow=classic;startArrow=classic;html=1;rounded=0;" parent="1" edge="1">
          <mxGeometry width="50" height="50" relative="1" as="geometry">
            <mxPoint x="20" y="1260" as="sourcePoint" />
            <mxPoint x="370" y="1260" as="targetPoint" />
          </mxGeometry>
        </mxCell>
        <mxCell id="Run5okdQB8i3EcOxjmgW-59" value="" style="endArrow=classic;html=1;rounded=0;entryX=0;entryY=0.5;entryDx=0;entryDy=0;" parent="1" target="Run5okdQB8i3EcOxjmgW-72" edge="1">
          <mxGeometry width="50" height="50" relative="1" as="geometry">
            <mxPoint x="420" y="1260" as="sourcePoint" />
            <mxPoint x="600" y="1260" as="targetPoint" />
          </mxGeometry>
        </mxCell>
        <mxCell id="Run5okdQB8i3EcOxjmgW-60" value="&lt;span style=&quot;color: rgb(0, 0, 0); font-family: Helvetica; font-size: 12px; font-style: normal; font-variant-ligatures: normal; font-variant-caps: normal; font-weight: 400; letter-spacing: normal; orphans: 2; text-align: center; text-indent: 0px; text-transform: none; widows: 2; word-spacing: 0px; -webkit-text-stroke-width: 0px; white-space: normal; background-color: rgb(251, 251, 251); text-decoration-thickness: initial; text-decoration-style: initial; text-decoration-color: initial; display: inline !important; float: none;&quot;&gt;SCM Tools/ Git , Github&lt;/span&gt;" style="text;whiteSpace=wrap;html=1;" parent="1" vertex="1">
          <mxGeometry x="100" y="1280" width="100" height="40" as="geometry" />
        </mxCell>
        <mxCell id="Run5okdQB8i3EcOxjmgW-61" value="&lt;span style=&quot;color: rgb(0, 0, 0); font-family: Helvetica; font-size: 12px; font-style: normal; font-variant-ligatures: normal; font-variant-caps: normal; font-weight: 400; letter-spacing: normal; orphans: 2; text-align: center; text-indent: 0px; text-transform: none; widows: 2; word-spacing: 0px; -webkit-text-stroke-width: 0px; white-space: normal; background-color: rgb(251, 251, 251); text-decoration-thickness: initial; text-decoration-style: initial; text-decoration-color: initial; display: inline !important; float: none;&quot;&gt;npm, maven,gradle,&lt;/span&gt;&lt;div style=&quot;forced-color-adjust: none; color: rgb(0, 0, 0); font-family: Helvetica; font-size: 12px; font-style: normal; font-variant-ligatures: normal; font-variant-caps: normal; font-weight: 400; letter-spacing: normal; orphans: 2; text-align: center; text-indent: 0px; text-transform: none; widows: 2; word-spacing: 0px; -webkit-text-stroke-width: 0px; white-space: normal; background-color: rgb(251, 251, 251); text-decoration-thickness: initial; text-decoration-style: initial; text-decoration-color: initial;&quot;&gt;Docker images&lt;/div&gt;" style="text;whiteSpace=wrap;html=1;" parent="1" vertex="1">
          <mxGeometry x="190" y="1275" width="140" height="50" as="geometry" />
        </mxCell>
        <mxCell id="Run5okdQB8i3EcOxjmgW-62" value="&lt;span style=&quot;color: rgb(0, 0, 0); font-family: Helvetica; font-size: 12px; font-style: normal; font-variant-ligatures: normal; font-variant-caps: normal; font-weight: 400; letter-spacing: normal; orphans: 2; text-align: center; text-indent: 0px; text-transform: none; widows: 2; word-spacing: 0px; -webkit-text-stroke-width: 0px; white-space: normal; background-color: rgb(251, 251, 251); text-decoration-thickness: initial; text-decoration-style: initial; text-decoration-color: initial; display: inline !important; float: none;&quot;&gt;Selenium, Cypress, Cucumber&lt;/span&gt;" style="text;whiteSpace=wrap;html=1;" parent="1" vertex="1">
          <mxGeometry x="320" y="1275" width="80" height="50" as="geometry" />
        </mxCell>
        <mxCell id="Run5okdQB8i3EcOxjmgW-63" value="&lt;span style=&quot;color: rgb(0, 0, 0); font-family: Helvetica; font-size: 12px; font-style: normal; font-variant-ligatures: normal; font-variant-caps: normal; font-weight: 400; letter-spacing: normal; orphans: 2; text-align: center; text-indent: 0px; text-transform: none; widows: 2; word-spacing: 0px; -webkit-text-stroke-width: 0px; white-space: normal; background-color: rgb(251, 251, 251); text-decoration-thickness: initial; text-decoration-style: initial; text-decoration-color: initial; display: inline !important; float: none;&quot;&gt;Prometheus/Grafana,&lt;/span&gt;&lt;div style=&quot;forced-color-adjust: none; color: rgb(0, 0, 0); font-family: Helvetica; font-size: 12px; font-style: normal; font-variant-ligatures: normal; font-variant-caps: normal; font-weight: 400; letter-spacing: normal; orphans: 2; text-align: center; text-indent: 0px; text-transform: none; widows: 2; word-spacing: 0px; -webkit-text-stroke-width: 0px; white-space: normal; background-color: rgb(251, 251, 251); text-decoration-thickness: initial; text-decoration-style: initial; text-decoration-color: initial;&quot;&gt;Data dog, Splunk , New relic&lt;/div&gt;" style="text;whiteSpace=wrap;html=1;" parent="1" vertex="1">
          <mxGeometry x="630" y="1280" width="120" height="60" as="geometry" />
        </mxCell>
        <mxCell id="Run5okdQB8i3EcOxjmgW-64" value="Notepad" style="ellipse;shape=cloud;whiteSpace=wrap;html=1;" parent="1" vertex="1">
          <mxGeometry x="-50" y="1080" width="120" height="80" as="geometry" />
        </mxCell>
        <mxCell id="Run5okdQB8i3EcOxjmgW-65" value="print(&quot;Hello World&quot;)&lt;br&gt;print(&quot;New Code&quot;)&lt;div&gt;&lt;br&gt;&lt;/div&gt;&lt;div&gt;Java&lt;/div&gt;&lt;div&gt;jar(built)&lt;/div&gt;" style="shape=card;whiteSpace=wrap;html=1;" parent="1" vertex="1">
          <mxGeometry x="-30" y="1420" width="80" height="100" as="geometry" />
        </mxCell>
        <mxCell id="Run5okdQB8i3EcOxjmgW-66" value="Continous Deployment" style="text;html=1;align=center;verticalAlign=middle;whiteSpace=wrap;rounded=0;" parent="1" vertex="1">
          <mxGeometry x="550" y="1080" width="60" height="30" as="geometry" />
        </mxCell>
        <mxCell id="Run5okdQB8i3EcOxjmgW-67" value="Continous Integration" style="text;html=1;align=center;verticalAlign=middle;whiteSpace=wrap;rounded=0;" parent="1" vertex="1">
          <mxGeometry x="190" y="1080" width="60" height="30" as="geometry" />
        </mxCell>
        <mxCell id="Run5okdQB8i3EcOxjmgW-68" value="Continuous Delivery" style="text;html=1;align=center;verticalAlign=middle;whiteSpace=wrap;rounded=0;" parent="1" vertex="1">
          <mxGeometry x="660" y="1100" width="60" height="30" as="geometry" />
        </mxCell>
        <mxCell id="Run5okdQB8i3EcOxjmgW-69" value="Lower&lt;div&gt;(dev, test)&lt;/div&gt;" style="ellipse;whiteSpace=wrap;html=1;" parent="1" vertex="1">
          <mxGeometry x="180" y="1460" width="120" height="80" as="geometry" />
        </mxCell>
        <mxCell id="Run5okdQB8i3EcOxjmgW-70" value="Environments" style="text;html=1;align=center;verticalAlign=middle;whiteSpace=wrap;rounded=0;" parent="1" vertex="1">
          <mxGeometry x="60" y="1430" width="60" height="30" as="geometry" />
        </mxCell>
        <mxCell id="Run5okdQB8i3EcOxjmgW-71" value="Higher&lt;div&gt;(prod)&lt;/div&gt;" style="ellipse;whiteSpace=wrap;html=1;" parent="1" vertex="1">
          <mxGeometry x="380" y="1490" width="120" height="80" as="geometry" />
        </mxCell>
        <mxCell id="Run5okdQB8i3EcOxjmgW-72" value="Servicenow, Jira" style="text;html=1;align=center;verticalAlign=middle;whiteSpace=wrap;rounded=0;" parent="1" vertex="1">
          <mxGeometry x="770" y="1245" width="60" height="30" as="geometry" />
        </mxCell>
        <mxCell id="Run5okdQB8i3EcOxjmgW-73" value="&lt;span style=&quot;color: rgb(0, 0, 0); font-family: Helvetica; font-size: 12px; font-style: normal; font-variant-ligatures: normal; font-variant-caps: normal; font-weight: 400; letter-spacing: normal; orphans: 2; text-align: center; text-indent: 0px; text-transform: none; widows: 2; word-spacing: 0px; -webkit-text-stroke-width: 0px; white-space: normal; background-color: rgb(251, 251, 251); text-decoration-thickness: initial; text-decoration-style: initial; text-decoration-color: initial; display: inline !important; float: none;&quot;&gt;Scripting, Ansible, Terraform,&lt;/span&gt;&lt;br style=&quot;forced-color-adjust: none; color: rgb(0, 0, 0); font-family: Helvetica; font-size: 12px; font-style: normal; font-variant-ligatures: normal; font-variant-caps: normal; font-weight: 400; letter-spacing: normal; orphans: 2; text-align: center; text-indent: 0px; text-transform: none; widows: 2; word-spacing: 0px; -webkit-text-stroke-width: 0px; white-space: normal; background-color: rgb(251, 251, 251); text-decoration-thickness: initial; text-decoration-style: initial; text-decoration-color: initial;&quot;&gt;&lt;span style=&quot;color: rgb(0, 0, 0); font-family: Helvetica; font-size: 12px; font-style: normal; font-variant-ligatures: normal; font-variant-caps: normal; font-weight: 400; letter-spacing: normal; orphans: 2; text-align: center; text-indent: 0px; text-transform: none; widows: 2; word-spacing: 0px; -webkit-text-stroke-width: 0px; white-space: normal; background-color: rgb(251, 251, 251); text-decoration-thickness: initial; text-decoration-style: initial; text-decoration-color: initial; display: inline !important; float: none;&quot;&gt;Docker container, Docker-swarm, Kubernetes&lt;/span&gt;" style="text;whiteSpace=wrap;html=1;" parent="1" vertex="1">
          <mxGeometry x="410" y="1270" width="120" height="80" as="geometry" />
        </mxCell>
        <mxCell id="Run5okdQB8i3EcOxjmgW-74" value="" style="shape=flexArrow;endArrow=classic;startArrow=classic;html=1;rounded=0;" parent="1" edge="1">
          <mxGeometry width="100" height="100" relative="1" as="geometry">
            <mxPoint x="-60" y="1370" as="sourcePoint" />
            <mxPoint x="840" y="1370" as="targetPoint" />
          </mxGeometry>
        </mxCell>
        <mxCell id="Run5okdQB8i3EcOxjmgW-75" value="Orchestration Tools" style="text;html=1;align=center;verticalAlign=middle;whiteSpace=wrap;rounded=0;" parent="1" vertex="1">
          <mxGeometry x="210" y="1380" width="60" height="30" as="geometry" />
        </mxCell>
        <mxCell id="Run5okdQB8i3EcOxjmgW-76" value="Jenkins, GitHub Actions, AWSDevOps" style="text;html=1;align=center;verticalAlign=middle;whiteSpace=wrap;rounded=0;" parent="1" vertex="1">
          <mxGeometry x="380" y="1380" width="160" height="40" as="geometry" />
        </mxCell>
        <mxCell id="Run5okdQB8i3EcOxjmgW-77" value="Actor" style="shape=umlActor;verticalLabelPosition=bottom;verticalAlign=top;html=1;outlineConnect=0;" parent="1" vertex="1">
          <mxGeometry x="110" y="1630" width="30" height="60" as="geometry" />
        </mxCell>
        <mxCell id="Run5okdQB8i3EcOxjmgW-78" value="Actor" style="shape=umlActor;verticalLabelPosition=bottom;verticalAlign=top;html=1;outlineConnect=0;" parent="1" vertex="1">
          <mxGeometry x="110" y="1750" width="30" height="60" as="geometry" />
        </mxCell>
        <mxCell id="Run5okdQB8i3EcOxjmgW-79" value="Team A" style="text;html=1;align=center;verticalAlign=middle;whiteSpace=wrap;rounded=0;" parent="1" vertex="1">
          <mxGeometry x="40" y="1610" width="60" height="30" as="geometry" />
        </mxCell>
        <mxCell id="Run5okdQB8i3EcOxjmgW-80" value="Team B" style="text;html=1;align=center;verticalAlign=middle;whiteSpace=wrap;rounded=0;" parent="1" vertex="1">
          <mxGeometry x="40" y="1750" width="60" height="30" as="geometry" />
        </mxCell>
        <mxCell id="Run5okdQB8i3EcOxjmgW-81" value="Team Workbook" style="rhombus;whiteSpace=wrap;html=1;" parent="1" vertex="1">
          <mxGeometry x="210" y="1610" width="80" height="80" as="geometry" />
        </mxCell>
        <mxCell id="Run5okdQB8i3EcOxjmgW-82" value="Actor" style="shape=umlActor;verticalLabelPosition=bottom;verticalAlign=top;html=1;outlineConnect=0;" parent="1" vertex="1">
          <mxGeometry x="350" y="1720" width="30" height="60" as="geometry" />
        </mxCell>
        <mxCell id="Run5okdQB8i3EcOxjmgW-83" value="Team C" style="text;html=1;align=center;verticalAlign=middle;whiteSpace=wrap;rounded=0;" parent="1" vertex="1">
          <mxGeometry x="280" y="1720" width="60" height="30" as="geometry" />
        </mxCell>
        <mxCell id="Run5okdQB8i3EcOxjmgW-84" value="Delhi" style="text;html=1;align=center;verticalAlign=middle;whiteSpace=wrap;rounded=0;" parent="1" vertex="1">
          <mxGeometry x="-50" y="1611" width="60" height="30" as="geometry" />
        </mxCell>
        <mxCell id="Run5okdQB8i3EcOxjmgW-85" value="Mumbai" style="text;html=1;align=center;verticalAlign=middle;whiteSpace=wrap;rounded=0;" parent="1" vertex="1">
          <mxGeometry x="335" y="1670" width="60" height="30" as="geometry" />
        </mxCell>
        <mxCell id="Run5okdQB8i3EcOxjmgW-86" value="Digital/Online Workbook" style="rhombus;whiteSpace=wrap;html=1;fillColor=#fff2cc;strokeColor=#d6b656;" parent="1" vertex="1">
          <mxGeometry x="230" y="1760" width="80" height="80" as="geometry" />
        </mxCell>
        <mxCell id="Run5okdQB8i3EcOxjmgW-91" style="edgeStyle=orthogonalEdgeStyle;rounded=0;orthogonalLoop=1;jettySize=auto;html=1;" parent="1" source="Run5okdQB8i3EcOxjmgW-87" target="Run5okdQB8i3EcOxjmgW-89" edge="1">
          <mxGeometry relative="1" as="geometry" />
        </mxCell>
        <mxCell id="Run5okdQB8i3EcOxjmgW-87" value="SCM" style="ellipse;whiteSpace=wrap;html=1;aspect=fixed;fillColor=#f8cecc;strokeColor=#b85450;" parent="1" vertex="1">
          <mxGeometry x="270" y="1880" width="80" height="80" as="geometry" />
        </mxCell>
        <mxCell id="Run5okdQB8i3EcOxjmgW-88" value="CVCS" style="ellipse;whiteSpace=wrap;html=1;aspect=fixed;fillColor=#fff2cc;strokeColor=#d6b656;" parent="1" vertex="1">
          <mxGeometry x="170" y="2000" width="80" height="80" as="geometry" />
        </mxCell>
        <mxCell id="Run5okdQB8i3EcOxjmgW-89" value="DVCS" style="ellipse;whiteSpace=wrap;html=1;aspect=fixed;fillColor=#fff2cc;strokeColor=#d6b656;" parent="1" vertex="1">
          <mxGeometry x="400" y="2000" width="80" height="80" as="geometry" />
        </mxCell>
        <mxCell id="Run5okdQB8i3EcOxjmgW-90" style="edgeStyle=orthogonalEdgeStyle;rounded=0;orthogonalLoop=1;jettySize=auto;html=1;entryX=0.622;entryY=-0.009;entryDx=0;entryDy=0;entryPerimeter=0;" parent="1" source="Run5okdQB8i3EcOxjmgW-87" target="Run5okdQB8i3EcOxjmgW-88" edge="1">
          <mxGeometry relative="1" as="geometry" />
        </mxCell>
        <mxCell id="Run5okdQB8i3EcOxjmgW-92" value="Storing data Globally&lt;div&gt;Manage the data that is stored in them via version control&lt;/div&gt;" style="shape=note;whiteSpace=wrap;html=1;backgroundOutline=1;darkOpacity=0.05;fillColor=#fff2cc;strokeColor=#d6b656;" parent="1" vertex="1">
          <mxGeometry x="525" y="1850" width="130" height="110" as="geometry" />
        </mxCell>
        <mxCell id="Run5okdQB8i3EcOxjmgW-93" value="Centralized Version Control System" style="text;html=1;align=center;verticalAlign=middle;whiteSpace=wrap;rounded=0;" parent="1" vertex="1">
          <mxGeometry x="80" y="1970" width="60" height="30" as="geometry" />
        </mxCell>
        <mxCell id="Run5okdQB8i3EcOxjmgW-94" value="Distributed Version Control System" style="text;html=1;align=center;verticalAlign=middle;whiteSpace=wrap;rounded=0;" parent="1" vertex="1">
          <mxGeometry x="500" y="1990" width="60" height="30" as="geometry" />
        </mxCell>
        <mxCell id="Run5okdQB8i3EcOxjmgW-95" value="Subversion(SVN),&lt;div&gt;Helixcore&lt;/div&gt;" style="text;html=1;align=center;verticalAlign=middle;whiteSpace=wrap;rounded=0;" parent="1" vertex="1">
          <mxGeometry x="180" y="2090" width="60" height="30" as="geometry" />
        </mxCell>
        <mxCell id="Run5okdQB8i3EcOxjmgW-96" value="Git, Perforce, Mercurial" style="text;html=1;align=center;verticalAlign=middle;whiteSpace=wrap;rounded=0;" parent="1" vertex="1">
          <mxGeometry x="415" y="2090" width="60" height="30" as="geometry" />
        </mxCell>
        <mxCell id="Run5okdQB8i3EcOxjmgW-101" style="edgeStyle=orthogonalEdgeStyle;rounded=0;orthogonalLoop=1;jettySize=auto;html=1;entryX=0.5;entryY=0;entryDx=0;entryDy=0;" parent="1" source="Run5okdQB8i3EcOxjmgW-97" target="Run5okdQB8i3EcOxjmgW-98" edge="1">
          <mxGeometry relative="1" as="geometry" />
        </mxCell>
        <mxCell id="Run5okdQB8i3EcOxjmgW-97" value="" style="ellipse;whiteSpace=wrap;html=1;aspect=fixed;" parent="1" vertex="1">
          <mxGeometry x="80" y="2150" width="80" height="80" as="geometry" />
        </mxCell>
        <mxCell id="Run5okdQB8i3EcOxjmgW-98" value="" style="ellipse;whiteSpace=wrap;html=1;aspect=fixed;" parent="1" vertex="1">
          <mxGeometry x="90" y="2330" width="80" height="80" as="geometry" />
        </mxCell>
        <mxCell id="Run5okdQB8i3EcOxjmgW-99" value="Client side" style="text;html=1;align=center;verticalAlign=middle;whiteSpace=wrap;rounded=0;" parent="1" vertex="1">
          <mxGeometry y="2175" width="60" height="30" as="geometry" />
        </mxCell>
        <mxCell id="Run5okdQB8i3EcOxjmgW-100" value="Server side" style="text;html=1;align=center;verticalAlign=middle;whiteSpace=wrap;rounded=0;" parent="1" vertex="1">
          <mxGeometry x="10" y="2370" width="60" height="30" as="geometry" />
        </mxCell>
        <mxCell id="Run5okdQB8i3EcOxjmgW-102" value="Git" style="text;html=1;align=center;verticalAlign=middle;whiteSpace=wrap;rounded=0;" parent="1" vertex="1">
          <mxGeometry x="140" y="2270" width="60" height="30" as="geometry" />
        </mxCell>
        <mxCell id="Run5okdQB8i3EcOxjmgW-103" value="Remote" style="text;html=1;align=center;verticalAlign=middle;whiteSpace=wrap;rounded=0;" parent="1" vertex="1">
          <mxGeometry x="230" y="2160" width="60" height="30" as="geometry" />
        </mxCell>
        <mxCell id="Run5okdQB8i3EcOxjmgW-104" value="Local" style="text;html=1;align=center;verticalAlign=middle;whiteSpace=wrap;rounded=0;" parent="1" vertex="1">
          <mxGeometry x="215" y="2355" width="60" height="30" as="geometry" />
        </mxCell>
        <mxCell id="Run5okdQB8i3EcOxjmgW-105" value="Github,Gitlab" style="text;html=1;align=center;verticalAlign=middle;whiteSpace=wrap;rounded=0;" parent="1" vertex="1">
          <mxGeometry x="220" y="2200" width="60" height="30" as="geometry" />
        </mxCell>
        <mxCell id="Run5okdQB8i3EcOxjmgW-106" value="Netflix 1.0" style="ellipse;shape=cloud;whiteSpace=wrap;html=1;" parent="1" vertex="1">
          <mxGeometry x="550" y="2295" width="120" height="80" as="geometry" />
        </mxCell>
        <mxCell id="Run5okdQB8i3EcOxjmgW-107" value="" style="edgeStyle=orthogonalEdgeStyle;rounded=0;orthogonalLoop=1;jettySize=auto;html=1;" parent="1" source="Run5okdQB8i3EcOxjmgW-108" target="Run5okdQB8i3EcOxjmgW-110" edge="1">
          <mxGeometry relative="1" as="geometry" />
        </mxCell>
        <mxCell id="Run5okdQB8i3EcOxjmgW-108" value="Organization" style="ellipse;whiteSpace=wrap;html=1;aspect=fixed;fillColor=#f8cecc;strokeColor=#b85450;" parent="1" vertex="1">
          <mxGeometry x="440" y="2160" width="80" height="80" as="geometry" />
        </mxCell>
        <mxCell id="Run5okdQB8i3EcOxjmgW-109" value="" style="edgeStyle=orthogonalEdgeStyle;rounded=0;orthogonalLoop=1;jettySize=auto;html=1;" parent="1" source="Run5okdQB8i3EcOxjmgW-110" edge="1">
          <mxGeometry relative="1" as="geometry">
            <mxPoint x="450" y="2405" as="targetPoint" />
          </mxGeometry>
        </mxCell>
        <mxCell id="Run5okdQB8i3EcOxjmgW-110" value="Repositories" style="ellipse;whiteSpace=wrap;html=1;aspect=fixed;fillColor=#fff2cc;strokeColor=#d6b656;" parent="1" vertex="1">
          <mxGeometry x="440" y="2285" width="80" height="80" as="geometry" />
        </mxCell>
        <mxCell id="Run5okdQB8i3EcOxjmgW-111" value="" style="edgeStyle=orthogonalEdgeStyle;rounded=0;orthogonalLoop=1;jettySize=auto;html=1;" parent="1" target="Run5okdQB8i3EcOxjmgW-112" edge="1">
          <mxGeometry relative="1" as="geometry">
            <mxPoint x="490" y="2445" as="sourcePoint" />
          </mxGeometry>
        </mxCell>
        <mxCell id="Run5okdQB8i3EcOxjmgW-112" value="Tags" style="ellipse;whiteSpace=wrap;html=1;aspect=fixed;fillColor=#e1d5e7;strokeColor=#9673a6;" parent="1" vertex="1">
          <mxGeometry x="575" y="2405" width="80" height="80" as="geometry" />
        </mxCell>
        <mxCell id="Run5okdQB8i3EcOxjmgW-113" value="Immutable data of branches" style="text;html=1;align=center;verticalAlign=middle;whiteSpace=wrap;rounded=0;" parent="1" vertex="1">
          <mxGeometry x="585" y="2505" width="60" height="30" as="geometry" />
        </mxCell>
        <mxCell id="Run5okdQB8i3EcOxjmgW-114" value="Mutable Data" style="text;html=1;align=center;verticalAlign=middle;whiteSpace=wrap;rounded=0;" parent="1" vertex="1">
          <mxGeometry x="425" y="2495" width="60" height="30" as="geometry" />
        </mxCell>
        <mxCell id="Run5okdQB8i3EcOxjmgW-115" value="Branches" style="ellipse;whiteSpace=wrap;html=1;aspect=fixed;fillColor=#d5e8d4;strokeColor=#82b366;" parent="1" vertex="1">
          <mxGeometry x="415" y="2410" width="80" height="80" as="geometry" />
        </mxCell>
        <mxCell id="Run5okdQB8i3EcOxjmgW-116" value="n 2.0" style="ellipse;shape=cloud;whiteSpace=wrap;html=1;" parent="1" vertex="1">
          <mxGeometry x="290" y="2345" width="120" height="80" as="geometry" />
        </mxCell>
        <mxCell id="Run5okdQB8i3EcOxjmgW-117" value="1.0" style="text;html=1;align=center;verticalAlign=middle;whiteSpace=wrap;rounded=0;" parent="1" vertex="1">
          <mxGeometry x="590" y="2271" width="60" height="30" as="geometry" />
        </mxCell>
        <mxCell id="Run5okdQB8i3EcOxjmgW-118" value="2.0" style="text;html=1;align=center;verticalAlign=middle;resizable=0;points=[];autosize=1;strokeColor=none;fillColor=none;" parent="1" vertex="1">
          <mxGeometry x="330" y="2318" width="40" height="30" as="geometry" />
        </mxCell>
        <mxCell id="Run5okdQB8i3EcOxjmgW-119" value="" style="edgeStyle=orthogonalEdgeStyle;rounded=0;orthogonalLoop=1;jettySize=auto;html=1;" parent="1" source="Run5okdQB8i3EcOxjmgW-120" target="Run5okdQB8i3EcOxjmgW-122" edge="1">
          <mxGeometry relative="1" as="geometry" />
        </mxCell>
        <mxCell id="Run5okdQB8i3EcOxjmgW-120" value="Working dir" style="ellipse;whiteSpace=wrap;html=1;aspect=fixed;" parent="1" vertex="1">
          <mxGeometry x="10" y="2610" width="80" height="80" as="geometry" />
        </mxCell>
        <mxCell id="Run5okdQB8i3EcOxjmgW-121" value="" style="edgeStyle=orthogonalEdgeStyle;rounded=0;orthogonalLoop=1;jettySize=auto;html=1;" parent="1" source="Run5okdQB8i3EcOxjmgW-122" target="Run5okdQB8i3EcOxjmgW-124" edge="1">
          <mxGeometry relative="1" as="geometry" />
        </mxCell>
        <mxCell id="Run5okdQB8i3EcOxjmgW-122" value="Staging Area" style="ellipse;whiteSpace=wrap;html=1;aspect=fixed;fillColor=#fff2cc;strokeColor=#d6b656;" parent="1" vertex="1">
          <mxGeometry x="180" y="2610" width="80" height="80" as="geometry" />
        </mxCell>
        <mxCell id="Run5okdQB8i3EcOxjmgW-123" style="edgeStyle=orthogonalEdgeStyle;rounded=0;orthogonalLoop=1;jettySize=auto;html=1;entryX=0;entryY=0.5;entryDx=0;entryDy=0;" parent="1" source="Run5okdQB8i3EcOxjmgW-124" target="Run5okdQB8i3EcOxjmgW-126" edge="1">
          <mxGeometry relative="1" as="geometry" />
        </mxCell>
        <mxCell id="Run5okdQB8i3EcOxjmgW-124" value="Commit" style="ellipse;whiteSpace=wrap;html=1;aspect=fixed;" parent="1" vertex="1">
          <mxGeometry x="345" y="2620" width="80" height="80" as="geometry" />
        </mxCell>
        <mxCell id="Run5okdQB8i3EcOxjmgW-125" value="Commit id" style="text;html=1;align=center;verticalAlign=middle;whiteSpace=wrap;rounded=0;" parent="1" vertex="1">
          <mxGeometry x="430" y="2590" width="60" height="30" as="geometry" />
        </mxCell>
        <mxCell id="Run5okdQB8i3EcOxjmgW-126" value="Push" style="ellipse;whiteSpace=wrap;html=1;aspect=fixed;" parent="1" vertex="1">
          <mxGeometry x="530" y="2620" width="80" height="80" as="geometry" />
        </mxCell>
        <mxCell id="Run5okdQB8i3EcOxjmgW-127" value="Git Lifecycle" style="ellipse;whiteSpace=wrap;html=1;aspect=fixed;" parent="1" vertex="1">
          <mxGeometry x="85" y="2485" width="100" height="100" as="geometry" />
        </mxCell>
        <mxCell id="Run5okdQB8i3EcOxjmgW-129" value="Merging strategies" style="rounded=1;whiteSpace=wrap;html=1;fillColor=#f8cecc;strokeColor=#b85450;" parent="1" vertex="1">
          <mxGeometry x="280" y="2740" width="120" height="60" as="geometry" />
        </mxCell>
        <mxCell id="Run5okdQB8i3EcOxjmgW-130" value="Git Merge" style="ellipse;whiteSpace=wrap;html=1;aspect=fixed;fillColor=#fff2cc;strokeColor=#d6b656;" parent="1" vertex="1">
          <mxGeometry x="170" y="2820" width="80" height="80" as="geometry" />
        </mxCell>
        <mxCell id="Run5okdQB8i3EcOxjmgW-131" value="Rebase" style="ellipse;whiteSpace=wrap;html=1;aspect=fixed;fillColor=#fff2cc;strokeColor=#d6b656;" parent="1" vertex="1">
          <mxGeometry x="445" y="2810" width="80" height="80" as="geometry" />
        </mxCell>
        <mxCell id="Run5okdQB8i3EcOxjmgW-132" style="edgeStyle=orthogonalEdgeStyle;rounded=0;orthogonalLoop=1;jettySize=auto;html=1;entryX=0.638;entryY=0.02;entryDx=0;entryDy=0;entryPerimeter=0;" parent="1" source="Run5okdQB8i3EcOxjmgW-129" target="Run5okdQB8i3EcOxjmgW-130" edge="1">
          <mxGeometry relative="1" as="geometry" />
        </mxCell>
        <mxCell id="Run5okdQB8i3EcOxjmgW-133" style="edgeStyle=orthogonalEdgeStyle;rounded=0;orthogonalLoop=1;jettySize=auto;html=1;entryX=0.668;entryY=0.072;entryDx=0;entryDy=0;entryPerimeter=0;" parent="1" source="Run5okdQB8i3EcOxjmgW-129" target="Run5okdQB8i3EcOxjmgW-131" edge="1">
          <mxGeometry relative="1" as="geometry" />
        </mxCell>
        <mxCell id="Run5okdQB8i3EcOxjmgW-134" style="edgeStyle=orthogonalEdgeStyle;rounded=0;orthogonalLoop=1;jettySize=auto;html=1;entryX=0;entryY=0;entryDx=0;entryDy=0;" parent="1" target="Run5okdQB8i3EcOxjmgW-138" edge="1">
          <mxGeometry relative="1" as="geometry">
            <mxPoint x="302" y="3115" as="sourcePoint" />
          </mxGeometry>
        </mxCell>
        <mxCell id="Run5okdQB8i3EcOxjmgW-135" style="edgeStyle=orthogonalEdgeStyle;rounded=0;orthogonalLoop=1;jettySize=auto;html=1;entryX=0.5;entryY=0;entryDx=0;entryDy=0;" parent="1" edge="1">
          <mxGeometry relative="1" as="geometry">
            <mxPoint x="342" y="3075" as="sourcePoint" />
            <mxPoint x="507" y="3155" as="targetPoint" />
          </mxGeometry>
        </mxCell>
        <mxCell id="Run5okdQB8i3EcOxjmgW-136" value="b1" style="ellipse;whiteSpace=wrap;html=1;aspect=fixed;" parent="1" vertex="1">
          <mxGeometry x="137" y="3155" width="80" height="80" as="geometry" />
        </mxCell>
        <mxCell id="Run5okdQB8i3EcOxjmgW-137" style="edgeStyle=orthogonalEdgeStyle;rounded=0;orthogonalLoop=1;jettySize=auto;html=1;entryX=1;entryY=0.5;entryDx=0;entryDy=0;" parent="1" source="Run5okdQB8i3EcOxjmgW-138" edge="1">
          <mxGeometry relative="1" as="geometry">
            <mxPoint x="342" y="3075" as="targetPoint" />
          </mxGeometry>
        </mxCell>
        <mxCell id="Run5okdQB8i3EcOxjmgW-138" value="b2" style="ellipse;whiteSpace=wrap;html=1;aspect=fixed;" parent="1" vertex="1">
          <mxGeometry x="297" y="3155" width="80" height="80" as="geometry" />
        </mxCell>
        <mxCell id="Run5okdQB8i3EcOxjmgW-139" style="edgeStyle=orthogonalEdgeStyle;rounded=0;orthogonalLoop=1;jettySize=auto;html=1;entryX=0.708;entryY=0.037;entryDx=0;entryDy=0;entryPerimeter=0;" parent="1" target="Run5okdQB8i3EcOxjmgW-136" edge="1">
          <mxGeometry relative="1" as="geometry">
            <mxPoint x="262" y="3075" as="sourcePoint" />
          </mxGeometry>
        </mxCell>
        <mxCell id="Run5okdQB8i3EcOxjmgW-140" style="edgeStyle=orthogonalEdgeStyle;rounded=0;orthogonalLoop=1;jettySize=auto;html=1;entryX=0.076;entryY=0.763;entryDx=0;entryDy=0;entryPerimeter=0;" parent="1" source="Run5okdQB8i3EcOxjmgW-136" edge="1">
          <mxGeometry relative="1" as="geometry">
            <mxPoint x="268" y="3096" as="targetPoint" />
          </mxGeometry>
        </mxCell>
        <mxCell id="Run5okdQB8i3EcOxjmgW-141" value="PR" style="text;html=1;align=center;verticalAlign=middle;whiteSpace=wrap;rounded=0;" parent="1" vertex="1">
          <mxGeometry x="217" y="3126" width="60" height="30" as="geometry" />
        </mxCell>
        <mxCell id="Run5okdQB8i3EcOxjmgW-142" value="Text" style="text;html=1;align=center;verticalAlign=middle;whiteSpace=wrap;rounded=0;" parent="1" vertex="1">
          <mxGeometry x="372" y="3105" width="60" height="30" as="geometry" />
        </mxCell>
        <mxCell id="Run5okdQB8i3EcOxjmgW-143" value="branch (netflix 2.0)" style="ellipse;whiteSpace=wrap;html=1;aspect=fixed;" parent="1" vertex="1">
          <mxGeometry x="257.47" y="3035" width="80" height="80" as="geometry" />
        </mxCell>
        <mxCell id="Run5okdQB8i3EcOxjmgW-144" value="b3" style="ellipse;whiteSpace=wrap;html=1;aspect=fixed;" parent="1" vertex="1">
          <mxGeometry x="465" y="3150" width="80" height="80" as="geometry" />
        </mxCell>
        <mxCell id="Run5okdQB8i3EcOxjmgW-145" value="Dev 1" style="text;html=1;align=center;verticalAlign=middle;resizable=0;points=[];autosize=1;strokeColor=none;fillColor=none;" parent="1" vertex="1">
          <mxGeometry x="32.47" y="3193" width="50" height="30" as="geometry" />
        </mxCell>
        <mxCell id="Run5okdQB8i3EcOxjmgW-146" value="Dev 2&lt;span style=&quot;color: rgba(0, 0, 0, 0); font-family: monospace; font-size: 0px; text-align: start;&quot;&gt;%3CmxGraphModel%3E%3Croot%3E%3CmxCell%20id%3D%220%22%2F%3E%3CmxCell%20id%3D%221%22%20parent%3D%220%22%2F%3E%3CmxCell%20id%3D%222%22%20value%3D%22Dev%201%22%20style%3D%22text%3Bhtml%3D1%3Balign%3Dcenter%3BverticalAlign%3Dmiddle%3Bresizable%3D0%3Bpoints%3D%5B%5D%3Bautosize%3D1%3BstrokeColor%3Dnone%3BfillColor%3Dnone%3B%22%20vertex%3D%221%22%20parent%3D%221%22%3E%3CmxGeometry%20x%3D%225%22%20y%3D%223078%22%20width%3D%2250%22%20height%3D%2230%22%20as%3D%22geometry%22%2F%3E%3C%2FmxCell%3E%3C%2Froot%3E%3C%2FmxGraphModel%3E&lt;/span&gt;" style="text;html=1;align=center;verticalAlign=middle;resizable=0;points=[];autosize=1;strokeColor=none;fillColor=none;" parent="1" vertex="1">
          <mxGeometry x="249.53" y="3120" width="50" height="30" as="geometry" />
        </mxCell>
        <mxCell id="Run5okdQB8i3EcOxjmgW-147" value="Dev 3" style="text;html=1;align=center;verticalAlign=middle;resizable=0;points=[];autosize=1;strokeColor=none;fillColor=none;" parent="1" vertex="1">
          <mxGeometry x="440" y="3130" width="50" height="30" as="geometry" />
        </mxCell>
        <mxCell id="Run5okdQB8i3EcOxjmgW-148" value="n 2.0 (Dec)" style="ellipse;shape=cloud;whiteSpace=wrap;html=1;" parent="1" vertex="1">
          <mxGeometry x="32.47" y="3055" width="120" height="80" as="geometry" />
        </mxCell>
        <mxCell id="Run5okdQB8i3EcOxjmgW-153" style="edgeStyle=orthogonalEdgeStyle;rounded=0;orthogonalLoop=1;jettySize=auto;html=1;entryX=0.5;entryY=0;entryDx=0;entryDy=0;" parent="1" source="Run5okdQB8i3EcOxjmgW-149" target="Run5okdQB8i3EcOxjmgW-143" edge="1">
          <mxGeometry relative="1" as="geometry" />
        </mxCell>
        <mxCell id="Run5okdQB8i3EcOxjmgW-149" value="master branch (netflix 1.0)" style="ellipse;whiteSpace=wrap;html=1;aspect=fixed;" parent="1" vertex="1">
          <mxGeometry x="250" y="2920" width="70" height="70" as="geometry" />
        </mxCell>
        <mxCell id="Lo1xJiKtZi2-UshI0F9K-7" style="edgeStyle=orthogonalEdgeStyle;rounded=0;orthogonalLoop=1;jettySize=auto;html=1;entryX=0;entryY=0.5;entryDx=0;entryDy=0;" parent="1" source="Lo1xJiKtZi2-UshI0F9K-1" target="Lo1xJiKtZi2-UshI0F9K-2" edge="1">
          <mxGeometry relative="1" as="geometry" />
        </mxCell>
        <mxCell id="Lo1xJiKtZi2-UshI0F9K-8" style="edgeStyle=orthogonalEdgeStyle;rounded=0;orthogonalLoop=1;jettySize=auto;html=1;" parent="1" source="Lo1xJiKtZi2-UshI0F9K-1" target="Lo1xJiKtZi2-UshI0F9K-3" edge="1">
          <mxGeometry relative="1" as="geometry" />
        </mxCell>
        <mxCell id="Lo1xJiKtZi2-UshI0F9K-1" value="Ansible" style="ellipse;whiteSpace=wrap;html=1;aspect=fixed;fillColor=#f8cecc;strokeColor=#b85450;" parent="1" vertex="1">
          <mxGeometry x="80" y="3360" width="80" height="80" as="geometry" />
        </mxCell>
        <mxCell id="Lo1xJiKtZi2-UshI0F9K-2" value="ip" style="ellipse;whiteSpace=wrap;html=1;aspect=fixed;fillColor=#d5e8d4;strokeColor=#82b366;" parent="1" vertex="1">
          <mxGeometry x="305" y="3310" width="80" height="80" as="geometry" />
        </mxCell>
        <mxCell id="Lo1xJiKtZi2-UshI0F9K-3" value="ip" style="ellipse;whiteSpace=wrap;html=1;aspect=fixed;fillColor=#d5e8d4;strokeColor=#82b366;" parent="1" vertex="1">
          <mxGeometry x="310" y="3420" width="80" height="80" as="geometry" />
        </mxCell>
        <mxCell id="Lo1xJiKtZi2-UshI0F9K-4" value="Push" style="text;html=1;align=center;verticalAlign=middle;whiteSpace=wrap;rounded=0;" parent="1" vertex="1">
          <mxGeometry y="3310" width="60" height="30" as="geometry" />
        </mxCell>
        <mxCell id="Lo1xJiKtZi2-UshI0F9K-5" value="Master" style="text;html=1;align=center;verticalAlign=middle;whiteSpace=wrap;rounded=0;" parent="1" vertex="1">
          <mxGeometry x="10" y="3390" width="60" height="30" as="geometry" />
        </mxCell>
        <mxCell id="Lo1xJiKtZi2-UshI0F9K-6" value="Slaves" style="text;html=1;align=center;verticalAlign=middle;whiteSpace=wrap;rounded=0;" parent="1" vertex="1">
          <mxGeometry x="395" y="3290" width="60" height="30" as="geometry" />
        </mxCell>
        <mxCell id="Lo1xJiKtZi2-UshI0F9K-11" value="Puppet" style="ellipse;whiteSpace=wrap;html=1;aspect=fixed;fillColor=#f8cecc;strokeColor=#b85450;" parent="1" vertex="1">
          <mxGeometry x="105" y="3590" width="80" height="80" as="geometry" />
        </mxCell>
        <mxCell id="Lo1xJiKtZi2-UshI0F9K-17" style="edgeStyle=orthogonalEdgeStyle;rounded=0;orthogonalLoop=1;jettySize=auto;html=1;entryX=1;entryY=0.5;entryDx=0;entryDy=0;" parent="1" source="Lo1xJiKtZi2-UshI0F9K-12" target="Lo1xJiKtZi2-UshI0F9K-11" edge="1">
          <mxGeometry relative="1" as="geometry" />
        </mxCell>
        <mxCell id="Lo1xJiKtZi2-UshI0F9K-12" value="" style="ellipse;whiteSpace=wrap;html=1;aspect=fixed;fillColor=#d5e8d4;strokeColor=#82b366;" parent="1" vertex="1">
          <mxGeometry x="335" y="3560" width="80" height="80" as="geometry" />
        </mxCell>
        <mxCell id="Lo1xJiKtZi2-UshI0F9K-18" style="edgeStyle=orthogonalEdgeStyle;rounded=0;orthogonalLoop=1;jettySize=auto;html=1;entryX=1;entryY=0.5;entryDx=0;entryDy=0;" parent="1" source="Lo1xJiKtZi2-UshI0F9K-13" target="Lo1xJiKtZi2-UshI0F9K-11" edge="1">
          <mxGeometry relative="1" as="geometry" />
        </mxCell>
        <mxCell id="Lo1xJiKtZi2-UshI0F9K-13" value="" style="ellipse;whiteSpace=wrap;html=1;aspect=fixed;fillColor=#d5e8d4;strokeColor=#82b366;" parent="1" vertex="1">
          <mxGeometry x="335" y="3670" width="80" height="80" as="geometry" />
        </mxCell>
        <mxCell id="Lo1xJiKtZi2-UshI0F9K-14" value="Pull" style="text;html=1;align=center;verticalAlign=middle;whiteSpace=wrap;rounded=0;" parent="1" vertex="1">
          <mxGeometry x="25" y="3540" width="60" height="30" as="geometry" />
        </mxCell>
        <mxCell id="Lo1xJiKtZi2-UshI0F9K-15" value="Master" style="text;html=1;align=center;verticalAlign=middle;whiteSpace=wrap;rounded=0;" parent="1" vertex="1">
          <mxGeometry x="35" y="3620" width="60" height="30" as="geometry" />
        </mxCell>
        <mxCell id="Lo1xJiKtZi2-UshI0F9K-16" value="Slaves" style="text;html=1;align=center;verticalAlign=middle;whiteSpace=wrap;rounded=0;" parent="1" vertex="1">
          <mxGeometry x="420" y="3520" width="60" height="30" as="geometry" />
        </mxCell>
        <mxCell id="Lo1xJiKtZi2-UshI0F9K-19" value="b[0]=9,b[1]=99" style="text;html=1;align=center;verticalAlign=middle;whiteSpace=wrap;rounded=0;" parent="1" vertex="1">
          <mxGeometry x="70" y="3750" width="60" height="30" as="geometry" />
        </mxCell>
        <mxCell id="Lo1xJiKtZi2-UshI0F9K-20" value="b[color]=red, b[book]=abc" style="text;html=1;align=center;verticalAlign=middle;resizable=0;points=[];autosize=1;strokeColor=none;fillColor=none;" parent="1" vertex="1">
          <mxGeometry x="-20" y="3768" width="160" height="30" as="geometry" />
        </mxCell>
        <mxCell id="FkgXk9LcDPr2wtu8UhqF-1" value="s1" style="ellipse;whiteSpace=wrap;html=1;aspect=fixed;" parent="1" vertex="1">
          <mxGeometry x="205" y="3810" width="80" height="80" as="geometry" />
        </mxCell>
        <mxCell id="FkgXk9LcDPr2wtu8UhqF-2" value="s2" style="ellipse;whiteSpace=wrap;html=1;aspect=fixed;" parent="1" vertex="1">
          <mxGeometry x="325" y="3810" width="80" height="80" as="geometry" />
        </mxCell>
        <mxCell id="FkgXk9LcDPr2wtu8UhqF-3" value="s3" style="ellipse;whiteSpace=wrap;html=1;aspect=fixed;" parent="1" vertex="1">
          <mxGeometry x="450" y="3810" width="80" height="80" as="geometry" />
        </mxCell>
        <mxCell id="FkgXk9LcDPr2wtu8UhqF-4" value="c1" style="rhombus;whiteSpace=wrap;html=1;" parent="1" vertex="1">
          <mxGeometry x="57" y="3870" width="80" height="80" as="geometry" />
        </mxCell>
        <mxCell id="FkgXk9LcDPr2wtu8UhqF-5" style="edgeStyle=orthogonalEdgeStyle;rounded=0;orthogonalLoop=1;jettySize=auto;html=1;entryX=0.688;entryY=1;entryDx=0;entryDy=0;entryPerimeter=0;" parent="1" source="FkgXk9LcDPr2wtu8UhqF-4" target="FkgXk9LcDPr2wtu8UhqF-2" edge="1">
          <mxGeometry relative="1" as="geometry" />
        </mxCell>
        <mxCell id="FkgXk9LcDPr2wtu8UhqF-6" value="c2" style="rhombus;whiteSpace=wrap;html=1;" parent="1" vertex="1">
          <mxGeometry x="40" y="3798" width="80" height="80" as="geometry" />
        </mxCell>
        <mxCell id="FkgXk9LcDPr2wtu8UhqF-7" style="edgeStyle=orthogonalEdgeStyle;rounded=0;orthogonalLoop=1;jettySize=auto;html=1;entryX=0.087;entryY=0.354;entryDx=0;entryDy=0;entryPerimeter=0;" parent="1" source="FkgXk9LcDPr2wtu8UhqF-6" target="FkgXk9LcDPr2wtu8UhqF-1" edge="1">
          <mxGeometry relative="1" as="geometry" />
        </mxCell>
        <mxCell id="FkgXk9LcDPr2wtu8UhqF-8" value="2---3 nginx con" style="ellipse;whiteSpace=wrap;html=1;aspect=fixed;" parent="1" vertex="1">
          <mxGeometry x="515" y="3940" width="80" height="80" as="geometry" />
        </mxCell>
        <mxCell id="FkgXk9LcDPr2wtu8UhqF-10" style="edgeStyle=orthogonalEdgeStyle;rounded=0;orthogonalLoop=1;jettySize=auto;html=1;" parent="1" source="FkgXk9LcDPr2wtu8UhqF-9" target="FkgXk9LcDPr2wtu8UhqF-8" edge="1">
          <mxGeometry relative="1" as="geometry" />
        </mxCell>
        <mxCell id="FkgXk9LcDPr2wtu8UhqF-9" value="8000" style="text;html=1;align=center;verticalAlign=middle;whiteSpace=wrap;rounded=0;" parent="1" vertex="1">
          <mxGeometry x="535" y="3895" width="60" height="30" as="geometry" />
        </mxCell>
        <mxCell id="pWQnMNJkYjF9ZErC8HfQ-1" value="P1" style="ellipse;whiteSpace=wrap;html=1;aspect=fixed;" vertex="1" parent="1">
          <mxGeometry x="185" y="4120" width="80" height="80" as="geometry" />
        </mxCell>
        <mxCell id="pWQnMNJkYjF9ZErC8HfQ-2" value="p2" style="ellipse;whiteSpace=wrap;html=1;aspect=fixed;" vertex="1" parent="1">
          <mxGeometry x="310" y="4120" width="80" height="80" as="geometry" />
        </mxCell>
        <mxCell id="pWQnMNJkYjF9ZErC8HfQ-3" value="frontend:v3" style="text;html=1;align=center;verticalAlign=middle;whiteSpace=wrap;rounded=0;" vertex="1" parent="1">
          <mxGeometry x="170" y="4090" width="60" height="30" as="geometry" />
        </mxCell>
        <mxCell id="pWQnMNJkYjF9ZErC8HfQ-4" value="frontend:v2" style="text;html=1;align=center;verticalAlign=middle;whiteSpace=wrap;rounded=0;" vertex="1" parent="1">
          <mxGeometry x="305" y="4090" width="60" height="30" as="geometry" />
        </mxCell>
        <mxCell id="pWQnMNJkYjF9ZErC8HfQ-5" value="frontend:v3" style="text;html=1;align=center;verticalAlign=middle;whiteSpace=wrap;rounded=0;" vertex="1" parent="1">
          <mxGeometry x="465" y="4090" width="60" height="30" as="geometry" />
        </mxCell>
        <mxCell id="pWQnMNJkYjF9ZErC8HfQ-6" value="" style="swimlane;startSize=0;" vertex="1" parent="1">
          <mxGeometry x="125" y="4070" width="410" height="200" as="geometry" />
        </mxCell>
        <mxCell id="pWQnMNJkYjF9ZErC8HfQ-7" value="" style="edgeStyle=orthogonalEdgeStyle;rounded=0;orthogonalLoop=1;jettySize=auto;html=1;" edge="1" parent="pWQnMNJkYjF9ZErC8HfQ-6" source="pWQnMNJkYjF9ZErC8HfQ-8" target="pWQnMNJkYjF9ZErC8HfQ-9">
          <mxGeometry relative="1" as="geometry" />
        </mxCell>
        <mxCell id="pWQnMNJkYjF9ZErC8HfQ-14" style="edgeStyle=orthogonalEdgeStyle;rounded=0;orthogonalLoop=1;jettySize=auto;html=1;" edge="1" parent="pWQnMNJkYjF9ZErC8HfQ-6" source="pWQnMNJkYjF9ZErC8HfQ-8" target="pWQnMNJkYjF9ZErC8HfQ-11">
          <mxGeometry relative="1" as="geometry" />
        </mxCell>
        <mxCell id="pWQnMNJkYjF9ZErC8HfQ-8" value="Deployment" style="text;html=1;align=center;verticalAlign=middle;whiteSpace=wrap;rounded=0;" vertex="1" parent="pWQnMNJkYjF9ZErC8HfQ-6">
          <mxGeometry x="20" y="160" width="60" height="30" as="geometry" />
        </mxCell>
        <mxCell id="pWQnMNJkYjF9ZErC8HfQ-9" value="replicas" style="text;html=1;align=center;verticalAlign=middle;resizable=0;points=[];autosize=1;strokeColor=none;fillColor=none;" vertex="1" parent="pWQnMNJkYjF9ZErC8HfQ-6">
          <mxGeometry x="235" y="160" width="60" height="30" as="geometry" />
        </mxCell>
        <mxCell id="pWQnMNJkYjF9ZErC8HfQ-10" value="ReplicaSet" style="text;html=1;align=center;verticalAlign=middle;whiteSpace=wrap;rounded=0;" vertex="1" parent="pWQnMNJkYjF9ZErC8HfQ-6">
          <mxGeometry x="115" y="140" width="60" height="30" as="geometry" />
        </mxCell>
        <mxCell id="pWQnMNJkYjF9ZErC8HfQ-11" value="p3" style="ellipse;whiteSpace=wrap;html=1;aspect=fixed;" vertex="1" parent="pWQnMNJkYjF9ZErC8HfQ-6">
          <mxGeometry x="310" y="50" width="80" height="80" as="geometry" />
        </mxCell>
        <mxCell id="pWQnMNJkYjF9ZErC8HfQ-12" style="edgeStyle=orthogonalEdgeStyle;rounded=0;orthogonalLoop=1;jettySize=auto;html=1;" edge="1" parent="1" source="pWQnMNJkYjF9ZErC8HfQ-8" target="pWQnMNJkYjF9ZErC8HfQ-1">
          <mxGeometry relative="1" as="geometry" />
        </mxCell>
        <mxCell id="pWQnMNJkYjF9ZErC8HfQ-13" style="edgeStyle=orthogonalEdgeStyle;rounded=0;orthogonalLoop=1;jettySize=auto;html=1;entryX=0;entryY=1;entryDx=0;entryDy=0;" edge="1" parent="1" source="pWQnMNJkYjF9ZErC8HfQ-8" target="pWQnMNJkYjF9ZErC8HfQ-2">
          <mxGeometry relative="1" as="geometry" />
        </mxCell>
        <mxCell id="pWQnMNJkYjF9ZErC8HfQ-21" value="" style="edgeStyle=orthogonalEdgeStyle;rounded=0;orthogonalLoop=1;jettySize=auto;html=1;" edge="1" parent="1" target="pWQnMNJkYjF9ZErC8HfQ-22">
          <mxGeometry relative="1" as="geometry">
            <mxPoint x="357.5" y="4565" as="sourcePoint" />
          </mxGeometry>
        </mxCell>
        <mxCell id="pWQnMNJkYjF9ZErC8HfQ-22" value="Volumes Precreated" style="rounded=1;whiteSpace=wrap;html=1;fillColor=#f8cecc;strokeColor=#b85450;" vertex="1" parent="1">
          <mxGeometry x="137.5" y="4555" width="120" height="60" as="geometry" />
        </mxCell>
        <mxCell id="pWQnMNJkYjF9ZErC8HfQ-23" value="" style="edgeStyle=orthogonalEdgeStyle;rounded=0;orthogonalLoop=1;jettySize=auto;html=1;" edge="1" parent="1" target="pWQnMNJkYjF9ZErC8HfQ-27">
          <mxGeometry relative="1" as="geometry">
            <mxPoint x="127.5" y="4445" as="sourcePoint" />
          </mxGeometry>
        </mxCell>
        <mxCell id="pWQnMNJkYjF9ZErC8HfQ-24" value="" style="edgeStyle=orthogonalEdgeStyle;rounded=0;orthogonalLoop=1;jettySize=auto;html=1;" edge="1" parent="1" source="pWQnMNJkYjF9ZErC8HfQ-26">
          <mxGeometry relative="1" as="geometry">
            <mxPoint x="167.5" y="4485" as="targetPoint" />
          </mxGeometry>
        </mxCell>
        <mxCell id="pWQnMNJkYjF9ZErC8HfQ-25" style="edgeStyle=orthogonalEdgeStyle;rounded=0;orthogonalLoop=1;jettySize=auto;html=1;entryX=0;entryY=0;entryDx=0;entryDy=0;" edge="1" parent="1" source="pWQnMNJkYjF9ZErC8HfQ-26">
          <mxGeometry relative="1" as="geometry">
            <mxPoint x="369.5" y="4537" as="targetPoint" />
          </mxGeometry>
        </mxCell>
        <mxCell id="pWQnMNJkYjF9ZErC8HfQ-26" value="PVC" style="rhombus;whiteSpace=wrap;html=1;fillColor=#dae8fc;strokeColor=#6c8ebf;" vertex="1" parent="1">
          <mxGeometry x="207.5" y="4445" width="80" height="80" as="geometry" />
        </mxCell>
        <mxCell id="pWQnMNJkYjF9ZErC8HfQ-27" value="Volume" style="ellipse;whiteSpace=wrap;html=1;fillColor=#ffe6cc;strokeColor=#d79b00;" vertex="1" parent="1">
          <mxGeometry x="107.5" y="4310" width="120" height="80" as="geometry" />
        </mxCell>
        <mxCell id="pWQnMNJkYjF9ZErC8HfQ-28" value="PV" style="rhombus;whiteSpace=wrap;html=1;fillColor=#dae8fc;strokeColor=#6c8ebf;" vertex="1" parent="1">
          <mxGeometry x="95" y="4445" width="80" height="80" as="geometry" />
        </mxCell>
        <mxCell id="pWQnMNJkYjF9ZErC8HfQ-29" value="Pod" style="ellipse;whiteSpace=wrap;html=1;aspect=fixed;fillColor=#fff2cc;strokeColor=#d6b656;" vertex="1" parent="1">
          <mxGeometry x="352" y="4535" width="80" height="80" as="geometry" />
        </mxCell>
        <mxCell id="pWQnMNJkYjF9ZErC8HfQ-30" value="Static Provisioning" style="text;html=1;align=center;verticalAlign=middle;whiteSpace=wrap;rounded=0;fillColor=#d5e8d4;strokeColor=#82b366;" vertex="1" parent="1">
          <mxGeometry y="4280" width="60" height="30" as="geometry" />
        </mxCell>
        <mxCell id="pWQnMNJkYjF9ZErC8HfQ-31" value="20GB" style="text;html=1;align=center;verticalAlign=middle;whiteSpace=wrap;rounded=0;" vertex="1" parent="1">
          <mxGeometry x="40" y="4445" width="60" height="30" as="geometry" />
        </mxCell>
        <mxCell id="pWQnMNJkYjF9ZErC8HfQ-32" value="20GB" style="text;html=1;align=center;verticalAlign=middle;whiteSpace=wrap;rounded=0;" vertex="1" parent="1">
          <mxGeometry x="55" y="4335" width="60" height="30" as="geometry" />
        </mxCell>
        <mxCell id="pWQnMNJkYjF9ZErC8HfQ-33" value="15GB" style="text;html=1;align=center;verticalAlign=middle;whiteSpace=wrap;rounded=0;" vertex="1" parent="1">
          <mxGeometry x="185" y="4440" width="60" height="30" as="geometry" />
        </mxCell>
        <mxCell id="pWQnMNJkYjF9ZErC8HfQ-34" value="claimRef" style="text;html=1;align=center;verticalAlign=middle;whiteSpace=wrap;rounded=0;" vertex="1" parent="1">
          <mxGeometry x="390" y="4510" width="60" height="30" as="geometry" />
        </mxCell>
        <mxCell id="pWQnMNJkYjF9ZErC8HfQ-35" style="edgeStyle=orthogonalEdgeStyle;rounded=0;orthogonalLoop=1;jettySize=auto;html=1;entryX=0;entryY=0.5;entryDx=0;entryDy=0;" edge="1" parent="1" source="pWQnMNJkYjF9ZErC8HfQ-37" target="pWQnMNJkYjF9ZErC8HfQ-38">
          <mxGeometry relative="1" as="geometry" />
        </mxCell>
        <mxCell id="pWQnMNJkYjF9ZErC8HfQ-36" style="edgeStyle=orthogonalEdgeStyle;rounded=0;orthogonalLoop=1;jettySize=auto;html=1;" edge="1" parent="1" source="pWQnMNJkYjF9ZErC8HfQ-37" target="pWQnMNJkYjF9ZErC8HfQ-40">
          <mxGeometry relative="1" as="geometry" />
        </mxCell>
        <mxCell id="pWQnMNJkYjF9ZErC8HfQ-37" value="Pod" style="ellipse;whiteSpace=wrap;html=1;aspect=fixed;fillColor=#fff2cc;strokeColor=#d6b656;" vertex="1" parent="1">
          <mxGeometry x="262.5" y="4670" width="80" height="80" as="geometry" />
        </mxCell>
        <mxCell id="pWQnMNJkYjF9ZErC8HfQ-38" value="Auto created based on request" style="rounded=1;whiteSpace=wrap;html=1;fillColor=#d5e8d4;strokeColor=#82b366;" vertex="1" parent="1">
          <mxGeometry x="497.5" y="4690" width="120" height="60" as="geometry" />
        </mxCell>
        <mxCell id="pWQnMNJkYjF9ZErC8HfQ-39" value="" style="edgeStyle=orthogonalEdgeStyle;rounded=0;orthogonalLoop=1;jettySize=auto;html=1;" edge="1" parent="1" source="pWQnMNJkYjF9ZErC8HfQ-40" target="pWQnMNJkYjF9ZErC8HfQ-41">
          <mxGeometry relative="1" as="geometry" />
        </mxCell>
        <mxCell id="pWQnMNJkYjF9ZErC8HfQ-40" value="PVC" style="rhombus;whiteSpace=wrap;html=1;fillColor=#dae8fc;strokeColor=#6c8ebf;" vertex="1" parent="1">
          <mxGeometry x="402.5" y="4810" width="80" height="80" as="geometry" />
        </mxCell>
        <mxCell id="pWQnMNJkYjF9ZErC8HfQ-47" style="edgeStyle=orthogonalEdgeStyle;rounded=0;orthogonalLoop=1;jettySize=auto;html=1;entryX=1;entryY=0.5;entryDx=0;entryDy=0;" edge="1" parent="1" source="pWQnMNJkYjF9ZErC8HfQ-41" target="pWQnMNJkYjF9ZErC8HfQ-44">
          <mxGeometry relative="1" as="geometry" />
        </mxCell>
        <mxCell id="pWQnMNJkYjF9ZErC8HfQ-41" value="Storage Class" style="ellipse;shape=cloud;whiteSpace=wrap;html=1;fillColor=#f8cecc;strokeColor=#b85450;" vertex="1" parent="1">
          <mxGeometry x="217.5" y="4810" width="120" height="80" as="geometry" />
        </mxCell>
        <mxCell id="pWQnMNJkYjF9ZErC8HfQ-42" value="AWS EBS Provisioners" style="text;html=1;align=center;verticalAlign=middle;whiteSpace=wrap;rounded=0;" vertex="1" parent="1">
          <mxGeometry x="152.5" y="4880" width="60" height="30" as="geometry" />
        </mxCell>
        <mxCell id="pWQnMNJkYjF9ZErC8HfQ-43" value="50GB" style="text;html=1;align=center;verticalAlign=middle;whiteSpace=wrap;rounded=0;" vertex="1" parent="1">
          <mxGeometry x="198.5" y="4690" width="60" height="30" as="geometry" />
        </mxCell>
        <mxCell id="pWQnMNJkYjF9ZErC8HfQ-44" value="50gb" style="shape=trapezoid;perimeter=trapezoidPerimeter;whiteSpace=wrap;html=1;fixedSize=1;fillColor=#e1d5e7;strokeColor=#9673a6;" vertex="1" parent="1">
          <mxGeometry x="20" y="4820" width="120" height="60" as="geometry" />
        </mxCell>
        <mxCell id="pWQnMNJkYjF9ZErC8HfQ-46" value="Dynamic Provisioning" style="text;html=1;align=center;verticalAlign=middle;whiteSpace=wrap;rounded=0;fillColor=#d5e8d4;strokeColor=#82b366;" vertex="1" parent="1">
          <mxGeometry x="35" y="4680" width="60" height="30" as="geometry" />
        </mxCell>
        <mxCell id="pWQnMNJkYjF9ZErC8HfQ-48" value="" style="edgeStyle=orthogonalEdgeStyle;rounded=0;orthogonalLoop=1;jettySize=auto;html=1;" edge="1" parent="1" source="pWQnMNJkYjF9ZErC8HfQ-49" target="pWQnMNJkYjF9ZErC8HfQ-51">
          <mxGeometry relative="1" as="geometry" />
        </mxCell>
        <mxCell id="pWQnMNJkYjF9ZErC8HfQ-49" value="Scheluding phase&amp;nbsp;" style="ellipse;whiteSpace=wrap;html=1;aspect=fixed;" vertex="1" parent="1">
          <mxGeometry x="130" y="5025" width="80" height="80" as="geometry" />
        </mxCell>
        <mxCell id="pWQnMNJkYjF9ZErC8HfQ-50" value="" style="edgeStyle=orthogonalEdgeStyle;rounded=0;orthogonalLoop=1;jettySize=auto;html=1;" edge="1" parent="1" source="pWQnMNJkYjF9ZErC8HfQ-51" target="pWQnMNJkYjF9ZErC8HfQ-53">
          <mxGeometry relative="1" as="geometry" />
        </mxCell>
        <mxCell id="pWQnMNJkYjF9ZErC8HfQ-51" value="Initializing Phase" style="ellipse;whiteSpace=wrap;html=1;aspect=fixed;" vertex="1" parent="1">
          <mxGeometry x="300" y="5025" width="80" height="80" as="geometry" />
        </mxCell>
        <mxCell id="pWQnMNJkYjF9ZErC8HfQ-52" style="edgeStyle=orthogonalEdgeStyle;rounded=0;orthogonalLoop=1;jettySize=auto;html=1;" edge="1" parent="1" source="pWQnMNJkYjF9ZErC8HfQ-53" target="pWQnMNJkYjF9ZErC8HfQ-59">
          <mxGeometry relative="1" as="geometry" />
        </mxCell>
        <mxCell id="pWQnMNJkYjF9ZErC8HfQ-53" value="running" style="ellipse;whiteSpace=wrap;html=1;aspect=fixed;fillColor=#d5e8d4;strokeColor=#82b366;" vertex="1" parent="1">
          <mxGeometry x="460" y="5025" width="80" height="80" as="geometry" />
        </mxCell>
        <mxCell id="pWQnMNJkYjF9ZErC8HfQ-54" value="Pod Lifecycle" style="text;html=1;align=center;verticalAlign=middle;whiteSpace=wrap;rounded=0;fillColor=#dae8fc;strokeColor=#6c8ebf;" vertex="1" parent="1">
          <mxGeometry x="70" y="4985" width="60" height="30" as="geometry" />
        </mxCell>
        <mxCell id="pWQnMNJkYjF9ZErC8HfQ-55" style="edgeStyle=orthogonalEdgeStyle;rounded=0;orthogonalLoop=1;jettySize=auto;html=1;" edge="1" parent="1" source="pWQnMNJkYjF9ZErC8HfQ-56" target="pWQnMNJkYjF9ZErC8HfQ-49">
          <mxGeometry relative="1" as="geometry" />
        </mxCell>
        <mxCell id="pWQnMNJkYjF9ZErC8HfQ-56" value="Actor" style="shape=umlActor;verticalLabelPosition=bottom;verticalAlign=top;html=1;outlineConnect=0;fillColor=#d5e8d4;strokeColor=#82b366;" vertex="1" parent="1">
          <mxGeometry y="5035" width="30" height="60" as="geometry" />
        </mxCell>
        <mxCell id="pWQnMNJkYjF9ZErC8HfQ-60" style="edgeStyle=orthogonalEdgeStyle;rounded=0;orthogonalLoop=1;jettySize=auto;html=1;" edge="1" parent="1" source="pWQnMNJkYjF9ZErC8HfQ-57">
          <mxGeometry relative="1" as="geometry">
            <mxPoint x="400" y="5060" as="targetPoint" />
          </mxGeometry>
        </mxCell>
        <mxCell id="pWQnMNJkYjF9ZErC8HfQ-57" value="Readiness" style="shape=process;whiteSpace=wrap;html=1;backgroundOutline=1;fillColor=#fff2cc;strokeColor=#d6b656;" vertex="1" parent="1">
          <mxGeometry x="137" y="5135" width="120" height="60" as="geometry" />
        </mxCell>
        <mxCell id="pWQnMNJkYjF9ZErC8HfQ-61" style="edgeStyle=orthogonalEdgeStyle;rounded=0;orthogonalLoop=1;jettySize=auto;html=1;" edge="1" parent="1" source="pWQnMNJkYjF9ZErC8HfQ-58" target="pWQnMNJkYjF9ZErC8HfQ-59">
          <mxGeometry relative="1" as="geometry" />
        </mxCell>
        <mxCell id="pWQnMNJkYjF9ZErC8HfQ-58" value="Liveness" style="shape=process;whiteSpace=wrap;html=1;backgroundOutline=1;fillColor=#fff2cc;strokeColor=#d6b656;" vertex="1" parent="1">
          <mxGeometry x="510" y="5160" width="120" height="60" as="geometry" />
        </mxCell>
        <mxCell id="pWQnMNJkYjF9ZErC8HfQ-59" value="restarted" style="ellipse;whiteSpace=wrap;html=1;fillColor=#dae8fc;strokeColor=#6c8ebf;" vertex="1" parent="1">
          <mxGeometry x="565" y="4960" width="120" height="80" as="geometry" />
        </mxCell>
        <mxCell id="pWQnMNJkYjF9ZErC8HfQ-62" value="http&lt;div&gt;tcp&lt;/div&gt;&lt;div&gt;exec&lt;/div&gt;&lt;div&gt;&lt;br&gt;&lt;/div&gt;" style="text;html=1;align=center;verticalAlign=middle;whiteSpace=wrap;rounded=0;fillColor=#dae8fc;strokeColor=#6c8ebf;" vertex="1" parent="1">
          <mxGeometry x="300" y="5190" width="65" height="50" as="geometry" />
        </mxCell>
        <mxCell id="pWQnMNJkYjF9ZErC8HfQ-63" value="Hotsart Clone" style="rounded=0;whiteSpace=wrap;html=1;fillColor=#dae8fc;strokeColor=#6c8ebf;" vertex="1" parent="1">
          <mxGeometry x="209.5" y="5390" width="120" height="60" as="geometry" />
        </mxCell>
        <mxCell id="pWQnMNJkYjF9ZErC8HfQ-64" value="" style="edgeStyle=orthogonalEdgeStyle;rounded=0;orthogonalLoop=1;jettySize=auto;html=1;" edge="1" parent="1" source="pWQnMNJkYjF9ZErC8HfQ-65" target="pWQnMNJkYjF9ZErC8HfQ-72">
          <mxGeometry relative="1" as="geometry" />
        </mxCell>
        <mxCell id="pWQnMNJkYjF9ZErC8HfQ-65" value="Build the app" style="ellipse;whiteSpace=wrap;html=1;aspect=fixed;fillColor=#fff2cc;strokeColor=#d6b656;" vertex="1" parent="1">
          <mxGeometry x="324.5" y="5490" width="80" height="80" as="geometry" />
        </mxCell>
        <mxCell id="pWQnMNJkYjF9ZErC8HfQ-66" value="Deploy" style="ellipse;whiteSpace=wrap;html=1;aspect=fixed;fillColor=#f8cecc;strokeColor=#b85450;" vertex="1" parent="1">
          <mxGeometry x="559.5" y="5490" width="80" height="80" as="geometry" />
        </mxCell>
        <mxCell id="pWQnMNJkYjF9ZErC8HfQ-67" value="" style="edgeStyle=orthogonalEdgeStyle;rounded=0;orthogonalLoop=1;jettySize=auto;html=1;" edge="1" parent="1" source="pWQnMNJkYjF9ZErC8HfQ-68" target="pWQnMNJkYjF9ZErC8HfQ-70">
          <mxGeometry relative="1" as="geometry" />
        </mxCell>
        <mxCell id="pWQnMNJkYjF9ZErC8HfQ-68" value="Setting the env" style="ellipse;whiteSpace=wrap;html=1;aspect=fixed;fillColor=#fff2cc;strokeColor=#d6b656;" vertex="1" parent="1">
          <mxGeometry x="99.5" y="5490" width="80" height="80" as="geometry" />
        </mxCell>
        <mxCell id="pWQnMNJkYjF9ZErC8HfQ-69" value="" style="edgeStyle=orthogonalEdgeStyle;rounded=0;orthogonalLoop=1;jettySize=auto;html=1;" edge="1" parent="1" source="pWQnMNJkYjF9ZErC8HfQ-70" target="pWQnMNJkYjF9ZErC8HfQ-65">
          <mxGeometry relative="1" as="geometry" />
        </mxCell>
        <mxCell id="pWQnMNJkYjF9ZErC8HfQ-70" value="Check the vulnerability of our code" style="ellipse;whiteSpace=wrap;html=1;aspect=fixed;fillColor=#fff2cc;strokeColor=#d6b656;" vertex="1" parent="1">
          <mxGeometry x="205.5" y="5490" width="80" height="80" as="geometry" />
        </mxCell>
        <mxCell id="pWQnMNJkYjF9ZErC8HfQ-71" value="" style="edgeStyle=orthogonalEdgeStyle;rounded=0;orthogonalLoop=1;jettySize=auto;html=1;" edge="1" parent="1" source="pWQnMNJkYjF9ZErC8HfQ-72" target="pWQnMNJkYjF9ZErC8HfQ-66">
          <mxGeometry relative="1" as="geometry" />
        </mxCell>
        <mxCell id="pWQnMNJkYjF9ZErC8HfQ-72" value="Check the vulnerability of our build application" style="ellipse;whiteSpace=wrap;html=1;aspect=fixed;fillColor=#fff2cc;strokeColor=#d6b656;" vertex="1" parent="1">
          <mxGeometry x="439.5" y="5490" width="80" height="80" as="geometry" />
        </mxCell>
        <mxCell id="pWQnMNJkYjF9ZErC8HfQ-73" value="Git" style="text;html=1;align=center;verticalAlign=middle;whiteSpace=wrap;rounded=0;" vertex="1" parent="1">
          <mxGeometry x="-5.5" y="5590" width="60" height="30" as="geometry" />
        </mxCell>
        <mxCell id="pWQnMNJkYjF9ZErC8HfQ-74" value="nodeJS" style="text;html=1;align=center;verticalAlign=middle;whiteSpace=wrap;rounded=0;" vertex="1" parent="1">
          <mxGeometry x="99.5" y="5580" width="60" height="30" as="geometry" />
        </mxCell>
        <mxCell id="pWQnMNJkYjF9ZErC8HfQ-75" value="SonarQube" style="text;html=1;align=center;verticalAlign=middle;whiteSpace=wrap;rounded=0;" vertex="1" parent="1">
          <mxGeometry x="219.5" y="5580" width="60" height="30" as="geometry" />
        </mxCell>
        <mxCell id="pWQnMNJkYjF9ZErC8HfQ-76" value="Docker image" style="text;html=1;align=center;verticalAlign=middle;whiteSpace=wrap;rounded=0;" vertex="1" parent="1">
          <mxGeometry x="334.5" y="5580" width="60" height="30" as="geometry" />
        </mxCell>
        <mxCell id="pWQnMNJkYjF9ZErC8HfQ-77" value="Trivy" style="text;html=1;align=center;verticalAlign=middle;whiteSpace=wrap;rounded=0;" vertex="1" parent="1">
          <mxGeometry x="439.5" y="5580" width="60" height="30" as="geometry" />
        </mxCell>
        <mxCell id="pWQnMNJkYjF9ZErC8HfQ-78" value="Docker C/ Kubernetes" style="text;html=1;align=center;verticalAlign=middle;whiteSpace=wrap;rounded=0;" vertex="1" parent="1">
          <mxGeometry x="559.5" y="5580" width="60" height="30" as="geometry" />
        </mxCell>
        <mxCell id="pWQnMNJkYjF9ZErC8HfQ-79" value="" style="edgeStyle=orthogonalEdgeStyle;rounded=0;orthogonalLoop=1;jettySize=auto;html=1;" edge="1" parent="1" source="pWQnMNJkYjF9ZErC8HfQ-80" target="pWQnMNJkYjF9ZErC8HfQ-68">
          <mxGeometry relative="1" as="geometry" />
        </mxCell>
        <mxCell id="pWQnMNJkYjF9ZErC8HfQ-80" value="Getting the code" style="ellipse;whiteSpace=wrap;html=1;aspect=fixed;fillColor=#fff2cc;strokeColor=#d6b656;" vertex="1" parent="1">
          <mxGeometry x="-15.5" y="5500" width="80" height="80" as="geometry" />
        </mxCell>
        <mxCell id="pWQnMNJkYjF9ZErC8HfQ-81" value="Node JS" style="text;html=1;align=center;verticalAlign=middle;whiteSpace=wrap;rounded=0;" vertex="1" parent="1">
          <mxGeometry x="250" y="5330" width="60" height="30" as="geometry" />
        </mxCell>
        <mxCell id="pWQnMNJkYjF9ZErC8HfQ-82" value="npm" style="text;html=1;align=center;verticalAlign=middle;whiteSpace=wrap;rounded=0;" vertex="1" parent="1">
          <mxGeometry x="99.5" y="5600" width="60" height="30" as="geometry" />
        </mxCell>
        <mxCell id="pWQnMNJkYjF9ZErC8HfQ-83" value="" style="shape=flexArrow;endArrow=classic;startArrow=classic;html=1;rounded=0;fillColor=#ffe6cc;strokeColor=#d79b00;" edge="1" parent="1">
          <mxGeometry width="100" height="100" relative="1" as="geometry">
            <mxPoint x="-30.5" y="5640" as="sourcePoint" />
            <mxPoint x="669.5" y="5640" as="targetPoint" />
          </mxGeometry>
        </mxCell>
        <mxCell id="pWQnMNJkYjF9ZErC8HfQ-84" value="2P&lt;div&gt;1-Infra&lt;/div&gt;&lt;div&gt;2- Application&lt;/div&gt;" style="rhombus;whiteSpace=wrap;html=1;fillColor=#e1d5e7;strokeColor=#9673a6;" vertex="1" parent="1">
          <mxGeometry x="700" y="5470" width="130" height="110" as="geometry" />
        </mxCell>
        <mxCell id="pWQnMNJkYjF9ZErC8HfQ-85" value="DevSecOPs Pipeline" style="text;html=1;align=center;verticalAlign=middle;whiteSpace=wrap;rounded=0;" vertex="1" parent="1">
          <mxGeometry x="249.5" y="5660" width="170" height="30" as="geometry" />
        </mxCell>
        <mxCell id="pWQnMNJkYjF9ZErC8HfQ-88" value="" style="edgeStyle=orthogonalEdgeStyle;rounded=0;orthogonalLoop=1;jettySize=auto;html=1;" edge="1" parent="1" source="pWQnMNJkYjF9ZErC8HfQ-86" target="pWQnMNJkYjF9ZErC8HfQ-87">
          <mxGeometry relative="1" as="geometry" />
        </mxCell>
        <mxCell id="pWQnMNJkYjF9ZErC8HfQ-86" value="SonarQube&amp;nbsp;" style="ellipse;whiteSpace=wrap;html=1;aspect=fixed;fillColor=#f8cecc;strokeColor=#b85450;" vertex="1" parent="1">
          <mxGeometry x="180" y="5720" width="80" height="80" as="geometry" />
        </mxCell>
        <mxCell id="pWQnMNJkYjF9ZErC8HfQ-87" value="It main purpose it to do analysis on the developer&#39;s code" style="shape=card;whiteSpace=wrap;html=1;fillColor=#fff2cc;strokeColor=#d6b656;" vertex="1" parent="1">
          <mxGeometry x="350" y="5720" width="170" height="150" as="geometry" />
        </mxCell>
        <mxCell id="pWQnMNJkYjF9ZErC8HfQ-90" value="" style="edgeStyle=orthogonalEdgeStyle;rounded=0;orthogonalLoop=1;jettySize=auto;html=1;" edge="1" parent="1" source="pWQnMNJkYjF9ZErC8HfQ-89" target="pWQnMNJkYjF9ZErC8HfQ-86">
          <mxGeometry relative="1" as="geometry" />
        </mxCell>
        <mxCell id="pWQnMNJkYjF9ZErC8HfQ-89" value="jenkins" style="shape=cylinder3;whiteSpace=wrap;html=1;boundedLbl=1;backgroundOutline=1;size=15;" vertex="1" parent="1">
          <mxGeometry x="32" y="5720" width="60" height="80" as="geometry" />
        </mxCell>
        <mxCell id="pWQnMNJkYjF9ZErC8HfQ-155" value="" style="edgeStyle=orthogonalEdgeStyle;rounded=0;orthogonalLoop=1;jettySize=auto;html=1;" edge="1" parent="1" source="pWQnMNJkYjF9ZErC8HfQ-156" target="pWQnMNJkYjF9ZErC8HfQ-157">
          <mxGeometry relative="1" as="geometry" />
        </mxCell>
        <mxCell id="pWQnMNJkYjF9ZErC8HfQ-156" value="Monitor &amp;amp; Observability" style="rounded=1;whiteSpace=wrap;html=1;" vertex="1" parent="1">
          <mxGeometry x="-132.5" y="5900" width="120" height="60" as="geometry" />
        </mxCell>
        <mxCell id="pWQnMNJkYjF9ZErC8HfQ-157" value="P&amp;amp;G&lt;div&gt;Prometheus and Grafana&lt;/div&gt;&lt;div&gt;Splunk O&lt;/div&gt;" style="shape=note;whiteSpace=wrap;html=1;backgroundOutline=1;darkOpacity=0.05;" vertex="1" parent="1">
          <mxGeometry x="85" y="5870" width="185" height="120" as="geometry" />
        </mxCell>
        <mxCell id="pWQnMNJkYjF9ZErC8HfQ-158" style="edgeStyle=orthogonalEdgeStyle;rounded=0;orthogonalLoop=1;jettySize=auto;html=1;entryX=0.5;entryY=0;entryDx=0;entryDy=0;" edge="1" parent="1" source="pWQnMNJkYjF9ZErC8HfQ-161" target="pWQnMNJkYjF9ZErC8HfQ-173">
          <mxGeometry relative="1" as="geometry" />
        </mxCell>
        <mxCell id="pWQnMNJkYjF9ZErC8HfQ-159" style="edgeStyle=orthogonalEdgeStyle;rounded=0;orthogonalLoop=1;jettySize=auto;html=1;" edge="1" parent="1" source="pWQnMNJkYjF9ZErC8HfQ-161">
          <mxGeometry relative="1" as="geometry">
            <mxPoint x="-87.5" y="6185" as="targetPoint" />
          </mxGeometry>
        </mxCell>
        <mxCell id="pWQnMNJkYjF9ZErC8HfQ-160" style="edgeStyle=orthogonalEdgeStyle;rounded=0;orthogonalLoop=1;jettySize=auto;html=1;" edge="1" parent="1" source="pWQnMNJkYjF9ZErC8HfQ-161" target="pWQnMNJkYjF9ZErC8HfQ-174">
          <mxGeometry relative="1" as="geometry" />
        </mxCell>
        <mxCell id="pWQnMNJkYjF9ZErC8HfQ-161" value="Prom" style="whiteSpace=wrap;html=1;aspect=fixed;fillColor=#ffe6cc;strokeColor=#d79b00;" vertex="1" parent="1">
          <mxGeometry x="-67.5" y="6145" width="70" height="70" as="geometry" />
        </mxCell>
        <mxCell id="pWQnMNJkYjF9ZErC8HfQ-162" value="In time DB" style="ellipse;whiteSpace=wrap;html=1;aspect=fixed;fillColor=#ffe6cc;strokeColor=#d79b00;" vertex="1" parent="1">
          <mxGeometry x="142.5" y="6105" width="80" height="80" as="geometry" />
        </mxCell>
        <mxCell id="pWQnMNJkYjF9ZErC8HfQ-163" style="edgeStyle=orthogonalEdgeStyle;rounded=0;orthogonalLoop=1;jettySize=auto;html=1;entryX=1;entryY=0.75;entryDx=0;entryDy=0;" edge="1" parent="1" source="pWQnMNJkYjF9ZErC8HfQ-165" target="pWQnMNJkYjF9ZErC8HfQ-161">
          <mxGeometry relative="1" as="geometry" />
        </mxCell>
        <mxCell id="pWQnMNJkYjF9ZErC8HfQ-164" style="edgeStyle=orthogonalEdgeStyle;rounded=0;orthogonalLoop=1;jettySize=auto;html=1;" edge="1" parent="1" source="pWQnMNJkYjF9ZErC8HfQ-165">
          <mxGeometry relative="1" as="geometry">
            <mxPoint x="412.5" y="6340" as="targetPoint" />
            <Array as="points">
              <mxPoint x="343.5" y="6265" />
            </Array>
          </mxGeometry>
        </mxCell>
        <mxCell id="pWQnMNJkYjF9ZErC8HfQ-165" value="Promtool" style="ellipse;whiteSpace=wrap;html=1;aspect=fixed;fillColor=#ffe6cc;strokeColor=#d79b00;" vertex="1" parent="1">
          <mxGeometry x="152.5" y="6225" width="80" height="80" as="geometry" />
        </mxCell>
        <mxCell id="pWQnMNJkYjF9ZErC8HfQ-166" value="DNS service Discovery" style="ellipse;whiteSpace=wrap;html=1;aspect=fixed;fillColor=#ffe6cc;strokeColor=#d79b00;" vertex="1" parent="1">
          <mxGeometry x="-12.500000000000002" y="6255" width="80" height="80" as="geometry" />
        </mxCell>
        <mxCell id="pWQnMNJkYjF9ZErC8HfQ-167" style="edgeStyle=orthogonalEdgeStyle;rounded=0;orthogonalLoop=1;jettySize=auto;html=1;entryX=0.404;entryY=0.013;entryDx=0;entryDy=0;entryPerimeter=0;" edge="1" parent="1" source="pWQnMNJkYjF9ZErC8HfQ-161" target="pWQnMNJkYjF9ZErC8HfQ-166">
          <mxGeometry relative="1" as="geometry" />
        </mxCell>
        <mxCell id="pWQnMNJkYjF9ZErC8HfQ-168" value="exporters" style="text;html=1;align=center;verticalAlign=middle;whiteSpace=wrap;rounded=0;fillColor=#d5e8d4;strokeColor=#82b366;" vertex="1" parent="1">
          <mxGeometry x="-84.5" y="6235" width="60" height="30" as="geometry" />
        </mxCell>
        <mxCell id="pWQnMNJkYjF9ZErC8HfQ-169" style="edgeStyle=orthogonalEdgeStyle;rounded=0;orthogonalLoop=1;jettySize=auto;html=1;" edge="1" parent="1" source="pWQnMNJkYjF9ZErC8HfQ-170">
          <mxGeometry relative="1" as="geometry">
            <mxPoint x="-27.5" y="6125" as="targetPoint" />
          </mxGeometry>
        </mxCell>
        <mxCell id="pWQnMNJkYjF9ZErC8HfQ-170" value="Grafana" style="shape=document;whiteSpace=wrap;html=1;boundedLbl=1;fillColor=#e1d5e7;strokeColor=#9673a6;" vertex="1" parent="1">
          <mxGeometry x="2.5" y="6040" width="120" height="80" as="geometry" />
        </mxCell>
        <mxCell id="pWQnMNJkYjF9ZErC8HfQ-171" style="edgeStyle=orthogonalEdgeStyle;rounded=0;orthogonalLoop=1;jettySize=auto;html=1;entryX=0.025;entryY=0.746;entryDx=0;entryDy=0;entryPerimeter=0;" edge="1" parent="1" source="pWQnMNJkYjF9ZErC8HfQ-161" target="pWQnMNJkYjF9ZErC8HfQ-162">
          <mxGeometry relative="1" as="geometry" />
        </mxCell>
        <mxCell id="pWQnMNJkYjF9ZErC8HfQ-172" style="edgeStyle=orthogonalEdgeStyle;rounded=0;orthogonalLoop=1;jettySize=auto;html=1;" edge="1" parent="1" source="pWQnMNJkYjF9ZErC8HfQ-173" target="pWQnMNJkYjF9ZErC8HfQ-178">
          <mxGeometry relative="1" as="geometry" />
        </mxCell>
        <mxCell id="pWQnMNJkYjF9ZErC8HfQ-173" value="Metrics" style="shape=process;whiteSpace=wrap;html=1;backgroundOutline=1;fillColor=#dae8fc;strokeColor=#6c8ebf;" vertex="1" parent="1">
          <mxGeometry x="-167.5" y="6325" width="120" height="60" as="geometry" />
        </mxCell>
        <mxCell id="pWQnMNJkYjF9ZErC8HfQ-174" value="Alerts" style="shape=cylinder3;whiteSpace=wrap;html=1;boundedLbl=1;backgroundOutline=1;size=15;fillColor=#ffe6cc;strokeColor=#d79b00;" vertex="1" parent="1">
          <mxGeometry x="-187.5" y="6125" width="60" height="80" as="geometry" />
        </mxCell>
        <mxCell id="pWQnMNJkYjF9ZErC8HfQ-175" value="" style="swimlane;startSize=0;fillColor=#dae8fc;strokeColor=#6c8ebf;" vertex="1" parent="1">
          <mxGeometry x="-227.5" y="6305" width="200" height="200" as="geometry" />
        </mxCell>
        <mxCell id="pWQnMNJkYjF9ZErC8HfQ-176" value="Server&amp;nbsp;" style="text;html=1;align=center;verticalAlign=middle;whiteSpace=wrap;rounded=0;" vertex="1" parent="pWQnMNJkYjF9ZErC8HfQ-175">
          <mxGeometry x="30" y="150" width="60" height="30" as="geometry" />
        </mxCell>
        <mxCell id="pWQnMNJkYjF9ZErC8HfQ-177" value="Scrapping" style="text;html=1;align=center;verticalAlign=middle;whiteSpace=wrap;rounded=0;" vertex="1" parent="1">
          <mxGeometry x="-232.5" y="6265" width="60" height="30" as="geometry" />
        </mxCell>
        <mxCell id="pWQnMNJkYjF9ZErC8HfQ-178" value="Exporters" style="shape=note;whiteSpace=wrap;html=1;backgroundOutline=1;darkOpacity=0.05;" vertex="1" parent="1">
          <mxGeometry x="78.5" y="6430" width="214" height="100" as="geometry" />
        </mxCell>
        <mxCell id="pWQnMNJkYjF9ZErC8HfQ-179" value="Promethues -&amp;nbsp;&lt;div&gt;OPensource2012, was made public in 2015&lt;/div&gt;&lt;div&gt;Provided Metrics and alerting&lt;/div&gt;&lt;div&gt;Written in Go langiage and intgreates well with cloud native infra&lt;/div&gt;" style="shape=card;whiteSpace=wrap;html=1;" vertex="1" parent="1">
          <mxGeometry x="337.5" y="5950" width="175" height="120" as="geometry" />
        </mxCell>
        <mxCell id="pWQnMNJkYjF9ZErC8HfQ-180" value="port (9090)" style="text;html=1;align=center;verticalAlign=middle;whiteSpace=wrap;rounded=0;" vertex="1" parent="1">
          <mxGeometry x="370.5" y="6195" width="60" height="30" as="geometry" />
        </mxCell>
        <mxCell id="pWQnMNJkYjF9ZErC8HfQ-181" value="" style="shape=flexArrow;endArrow=classic;html=1;rounded=0;entryX=0;entryY=0.75;entryDx=0;entryDy=0;fillColor=#d5e8d4;strokeColor=#82b366;" edge="1" parent="1" target="pWQnMNJkYjF9ZErC8HfQ-180">
          <mxGeometry width="50" height="50" relative="1" as="geometry">
            <mxPoint x="222.5" y="6230" as="sourcePoint" />
            <mxPoint x="272.5" y="6180" as="targetPoint" />
          </mxGeometry>
        </mxCell>
        <mxCell id="pWQnMNJkYjF9ZErC8HfQ-182" value="Node Exporter (9100)" style="text;html=1;align=center;verticalAlign=middle;whiteSpace=wrap;rounded=0;" vertex="1" parent="1">
          <mxGeometry x="172.5" y="6410" width="60" height="30" as="geometry" />
        </mxCell>
        <mxCell id="pWQnMNJkYjF9ZErC8HfQ-183" value="Reload prometheus" style="text;html=1;align=center;verticalAlign=middle;whiteSpace=wrap;rounded=0;" vertex="1" parent="1">
          <mxGeometry x="282.5" y="6295" width="60" height="30" as="geometry" />
        </mxCell>
        <mxCell id="pWQnMNJkYjF9ZErC8HfQ-184" value="promtool check config /etc/prometheus/prometheus.yml&lt;div&gt;curl -X POST http://localhost:9090/-/reload&lt;br&gt;&lt;/div&gt;" style="shape=note;whiteSpace=wrap;html=1;backgroundOutline=1;darkOpacity=0.05;" vertex="1" parent="1">
          <mxGeometry x="420.5" y="6285" width="312" height="225" as="geometry" />
        </mxCell>
        <mxCell id="pWQnMNJkYjF9ZErC8HfQ-185" value="" style="shape=flexArrow;endArrow=classic;html=1;rounded=0;fillColor=#d5e8d4;strokeColor=#82b366;" edge="1" parent="1">
          <mxGeometry width="50" height="50" relative="1" as="geometry">
            <mxPoint x="122.5" y="6070" as="sourcePoint" />
            <mxPoint x="192.5" y="6040" as="targetPoint" />
          </mxGeometry>
        </mxCell>
        <mxCell id="pWQnMNJkYjF9ZErC8HfQ-186" value="Port (3000)" style="text;html=1;align=center;verticalAlign=middle;whiteSpace=wrap;rounded=0;" vertex="1" parent="1">
          <mxGeometry x="197.5" y="6030" width="60" height="30" as="geometry" />
        </mxCell>
      </root>
    </mxGraphModel>
  </diagram>
</mxfile>
